<svg width="20" height="20" viewBox="0 0 20 20" fill="none" xmlns="http://www.w3.org/2000/svg">
<g clip-path="url(#clip0_968_13513)">
<path d="M4.41078 11.9784C4.08535 11.6529 4.08535 11.1253 4.41078 10.7999L7.74412 7.46654C8.04664 7.16401 8.52911 7.13973 8.86049 7.41035L9.92202 8.27727L12.7232 5.26599C12.8805 5.09692 13.1009 5.00069 13.3318 5.00024C13.5627 4.99979 13.7834 5.09517 13.9413 5.26362L15.608 7.0414C15.9228 7.37716 15.9058 7.90452 15.57 8.2193C15.2342 8.53407 14.7069 8.51706 14.3921 8.1813L13.3357 7.05453L10.6102 9.98449C10.3109 10.3062 9.81326 10.3403 9.47293 10.0623L8.38985 9.17783L5.5893 11.9784C5.26386 12.3038 4.73622 12.3038 4.41078 11.9784Z" fill="black"/>
<path fill-rule="evenodd" clip-rule="evenodd" d="M0.833374 4.16683C0.833374 2.32588 2.32576 0.833496 4.16671 0.833496H15.8334C17.6743 0.833496 19.1667 2.32588 19.1667 4.16683V12.5002C19.1667 14.3411 17.6743 15.8335 15.8334 15.8335H12.0119L13.9226 17.7442C14.2481 18.0697 14.2481 18.5973 13.9226 18.9228C13.5972 19.2482 13.0696 19.2482 12.7441 18.9228L10 16.1787L7.25596 18.9228C6.93053 19.2482 6.40289 19.2482 6.07745 18.9228C5.75201 18.5973 5.75201 18.0697 6.07745 17.7442L7.98819 15.8335H4.16671C2.32576 15.8335 0.833374 14.3411 0.833374 12.5002V4.16683ZM15.8334 14.1668C16.7538 14.1668 17.5 13.4206 17.5 12.5002V4.16683C17.5 3.24635 16.7538 2.50016 15.8334 2.50016H4.16671C3.24623 2.50016 2.50004 3.24636 2.50004 4.16683V12.5002C2.50004 13.4206 3.24623 14.1668 4.16671 14.1668H15.8334Z" fill="black"/>
</g>
<defs>
<clipPath id="clip0_968_13513">
<rect width="20" height="20" fill="white"/>
</clipPath>
</defs>
</svg>
