<svg width="20" height="20" viewBox="0 0 20 20" fill="none" xmlns="http://www.w3.org/2000/svg">
<path fill-rule="evenodd" clip-rule="evenodd" d="M12.9166 1.6665C11.766 1.6665 10.8333 2.59924 10.8333 3.74984V16.2498C10.8333 17.4004 11.766 18.3332 12.9166 18.3332H16.25C17.4006 18.3332 18.3333 17.4004 18.3333 16.2498V3.74984C18.3333 2.59924 17.4006 1.6665 16.25 1.6665H12.9166ZM12.5 3.74984C12.5 3.51972 12.6865 3.33317 12.9166 3.33317H16.25C16.4801 3.33317 16.6666 3.51972 16.6666 3.74984V16.2498C16.6666 16.48 16.4801 16.6665 16.25 16.6665H12.9166C12.6865 16.6665 12.5 16.48 12.5 16.2498V3.74984Z" fill="black"/>
<path fill-rule="evenodd" clip-rule="evenodd" d="M3.74996 9.1665C2.59937 9.1665 1.66663 10.0992 1.66663 11.2498V16.2498C1.66663 17.4004 2.59937 18.3332 3.74996 18.3332H7.08329C8.23389 18.3332 9.16663 17.4004 9.16663 16.2498V11.2498C9.16663 10.0992 8.23389 9.1665 7.08329 9.1665H3.74996ZM3.33329 11.2498C3.33329 11.0197 3.51984 10.8332 3.74996 10.8332H7.08329C7.31341 10.8332 7.49996 11.0197 7.49996 11.2498V16.2498C7.49996 16.48 7.31341 16.6665 7.08329 16.6665H3.74996C3.51984 16.6665 3.33329 16.48 3.33329 16.2498V11.2498Z" fill="black"/>
</svg>
