<svg width="20" height="20" viewBox="0 0 20 20" fill="none" xmlns="http://www.w3.org/2000/svg">
<path fill-rule="evenodd" clip-rule="evenodd" d="M9.99948 4.99982C7.23806 4.99982 4.99948 7.2384 4.99948 9.99982C4.99948 12.7612 7.23806 14.9998 9.99948 14.9998C12.7609 14.9998 14.9995 12.7612 14.9995 9.99982C14.9995 7.2384 12.7609 4.99982 9.99948 4.99982ZM6.66615 9.99982C6.66615 8.15887 8.15854 6.66649 9.99948 6.66649C11.8404 6.66649 13.3328 8.15887 13.3328 9.99982C13.3328 11.8408 11.8404 13.3332 9.99948 13.3332C8.15854 13.3332 6.66615 11.8408 6.66615 9.99982Z" fill="black"/>
<path fill-rule="evenodd" clip-rule="evenodd" d="M12.0843 1.69057C10.9219 0.566033 9.07708 0.566033 7.91464 1.69057C7.61939 1.9762 7.20885 2.10959 6.8021 2.05206C5.20069 1.82555 3.7082 2.9099 3.42876 4.50294C3.35778 4.90756 3.10405 5.25678 2.74117 5.44932C1.31246 6.20736 0.742379 7.96188 1.45267 9.41492C1.63308 9.78399 1.63308 10.2157 1.45267 10.5847C0.742378 12.0378 1.31246 13.7923 2.74117 14.5503C3.10405 14.7429 3.35778 15.0921 3.42876 15.4967C3.7082 17.0897 5.20069 18.1741 6.8021 17.9476C7.20885 17.8901 7.61939 18.0234 7.91464 18.3091C9.07708 19.4336 10.9219 19.4336 12.0843 18.3091C12.3796 18.0234 12.7901 17.8901 13.1969 17.9476C14.7983 18.1741 16.2908 17.0897 16.5702 15.4967C16.6412 15.0921 16.8949 14.7429 17.2578 14.5503C18.6865 13.7923 19.2566 12.0378 18.5463 10.5847C18.3659 10.2157 18.3659 9.78399 18.5463 9.41492C19.2566 7.96188 18.6865 6.20736 17.2578 5.44932C16.8949 5.25678 16.6412 4.90756 16.5702 4.50294C16.2908 2.9099 14.7983 1.82555 13.1969 2.05206C12.7901 2.10959 12.3796 1.9762 12.0843 1.69057ZM9.07347 2.88845C9.58978 2.38896 10.4092 2.38896 10.9255 2.88845C11.5902 3.53151 12.5145 3.83183 13.4303 3.7023C14.1416 3.60169 14.8045 4.08333 14.9286 4.7909C15.0884 5.70186 15.6596 6.48811 16.4766 6.92159C17.1112 7.25829 17.3644 8.03759 17.049 8.68298C16.6428 9.51389 16.6428 10.4858 17.049 11.3167C17.3644 11.9621 17.1112 12.7414 16.4766 13.0781C15.6596 13.5115 15.0884 14.2978 14.9286 15.2087C14.8045 15.9163 14.1416 16.398 13.4303 16.2973C12.5145 16.1678 11.5902 16.4681 10.9255 17.1112C10.4092 17.6107 9.58978 17.6107 9.07347 17.1112C8.40874 16.4681 7.48445 16.1678 6.56869 16.2973C5.85739 16.398 5.19448 15.9163 5.07036 15.2087C4.91056 14.2978 4.33932 13.5115 3.52232 13.0781C2.88773 12.7414 2.63452 11.9621 2.95001 11.3167C3.35618 10.4858 3.35618 9.51389 2.95001 8.68298C2.63452 8.03759 2.88773 7.25829 3.52232 6.92159C4.33932 6.48811 4.91056 5.70186 5.07036 4.7909C5.19448 4.08333 5.85739 3.60169 6.56869 3.7023C7.48445 3.83183 8.40874 3.53151 9.07347 2.88845Z" fill="black"/>
</svg>
