<svg width="37" height="37" viewBox="0 0 37 37" fill="none" xmlns="http://www.w3.org/2000/svg">
<rect width="37" height="37" rx="8" fill="#B3CEA9"/>
<path fill-rule="evenodd" clip-rule="evenodd" d="M10.6292 14.8911C10.6455 14.76 10.6713 14.5847 10.7264 14.4236C10.7601 14.2598 10.8344 14.1288 10.8998 14.0378C10.9895 13.9127 11.0995 13.8106 11.2003 13.7298C11.4023 13.568 11.6624 13.4173 11.9349 13.2795C12.4871 13.0004 13.2186 12.7114 13.971 12.4425C15.4831 11.9019 17.1756 11.4084 17.9193 11.1975C18.3066 11.0877 18.7091 11.0929 19.0927 11.2111C19.8336 11.4395 21.5227 11.9708 23.0308 12.5235C23.7818 12.7987 24.5071 13.0861 25.0519 13.3492C25.3206 13.479 25.5731 13.6159 25.768 13.7554C25.864 13.8241 25.9729 13.9123 26.0646 14.0208C26.1256 14.0928 26.2241 14.2264 26.2684 14.4108C26.3265 14.5753 26.3532 14.7565 26.37 14.8911C26.3953 15.0945 26.4127 15.34 26.4246 15.6087C26.4486 16.148 26.4526 16.8251 26.4456 17.535C26.4315 18.9575 26.3726 20.5503 26.3316 21.5195C26.2964 22.3543 25.7724 23.0828 25.0026 23.3907L19.2888 25.6763C18.7822 25.8789 18.217 25.8789 17.7104 25.6763L11.9966 23.3907C11.2268 23.0828 10.7028 22.3543 10.6676 21.5195C10.6266 20.5503 10.5677 18.9574 10.5536 17.535C10.5466 16.825 10.5507 16.148 10.5746 15.6087C10.5866 15.3401 10.6039 15.0945 10.6292 14.8911ZM17.7912 24.1828V17.9151C17.7647 17.9057 17.7383 17.8957 17.712 17.8852L11.9934 15.5978L11.9899 15.6716C11.9676 16.1729 11.9633 16.8202 11.9702 17.521C11.9841 18.9203 12.0422 20.495 12.083 21.4597C12.0944 21.7311 12.2646 21.9722 12.5227 22.0754L17.7912 24.1828ZM19.2079 24.1828V17.9152C19.2345 17.9057 19.2609 17.8958 19.2872 17.8852L25.0059 15.5978L25.0093 15.6717C25.0316 16.1729 25.0359 16.8202 25.029 17.521C25.0152 18.9203 24.957 20.495 24.9162 21.4597C24.9048 21.7311 24.7346 21.9722 24.4765 22.0754L19.2079 24.1828ZM22.5433 13.8537C23.1046 14.0593 23.6275 14.2635 24.0571 14.4515L22.0529 15.2532L16.8506 12.9888C17.4548 12.8045 17.9737 12.6546 18.3057 12.5604C18.4287 12.5256 18.5521 12.5269 18.6754 12.5649C19.4106 12.7916 21.071 13.3141 22.5433 13.8537ZM14.8144 13.6475L20.2031 15.9931L18.7611 16.5699C18.5922 16.6374 18.407 16.6374 18.2381 16.5699L12.8459 14.413C13.287 14.2101 13.8433 13.9926 14.4479 13.7764C14.569 13.7331 14.6913 13.6901 14.8144 13.6475Z" fill="white"/>
</svg>
