<svg width="37" height="37" viewBox="0 0 37 37" fill="none" xmlns="http://www.w3.org/2000/svg">
<rect width="37" height="37" rx="8" fill="#B3CEA9"/>
<path fill-rule="evenodd" clip-rule="evenodd" d="M19.9166 12.125C17.5694 12.125 15.6666 14.0278 15.6666 16.375C15.6666 18.7222 17.5694 20.625 19.9166 20.625C22.2639 20.625 24.1666 18.7222 24.1666 16.375C24.1666 14.0278 22.2639 12.125 19.9166 12.125ZM17.0833 16.375C17.0833 14.8102 18.3518 13.5417 19.9166 13.5417C21.4814 13.5417 22.75 14.8102 22.75 16.375C22.75 17.9398 21.4814 19.2083 19.9166 19.2083C18.3518 19.2083 17.0833 17.9398 17.0833 16.375Z" fill="white"/>
<path d="M15.7767 24.5401C15.5705 24.8725 15.1338 24.9748 14.8014 24.7686C14.469 24.5623 14.3667 24.1256 14.5729 23.7932C15.5429 22.2298 17.5273 20.625 19.9166 20.625C22.306 20.625 24.2904 22.2298 25.2604 23.7932C25.4666 24.1256 25.3643 24.5623 25.0319 24.7686C24.6995 24.9748 24.2628 24.8725 24.0566 24.5401C23.2617 23.259 21.6764 22.0417 19.9166 22.0417C18.1569 22.0417 16.5716 23.259 15.7767 24.5401Z" fill="white"/>
<path d="M15.5943 14.6465C15.7665 14.9977 15.6214 15.4221 15.2702 15.5943C14.6265 15.9099 14.25 16.4825 14.25 17.0833C14.25 17.6841 14.6265 18.2567 15.2702 18.5724C15.6214 18.7446 15.7665 19.169 15.5943 19.5202C15.4221 19.8714 14.9977 20.0166 14.6464 19.8443C13.6004 19.3314 12.8333 18.3113 12.8333 17.0833C12.8333 15.8554 13.6004 14.8353 14.6464 14.3224C14.9977 14.1501 15.4221 14.2952 15.5943 14.6465Z" fill="white"/>
<path d="M12.9434 24.5401C12.7371 24.8725 12.3005 24.9748 11.9681 24.7686C11.6356 24.5623 11.5333 24.1256 11.7396 23.7932C12.1498 23.1321 12.8061 22.5803 13.5383 22.1521C13.876 21.9547 14.3098 22.0683 14.5073 22.406C14.7048 22.7437 14.5911 23.1776 14.2534 23.3751C13.6416 23.7328 13.1914 24.1403 12.9434 24.5401Z" fill="white"/>
</svg>
