<svg width="150" height="150" viewBox="0 0 150 150" fill="none" xmlns="http://www.w3.org/2000/svg">
<path d="M75 122.697C103.319 122.697 126.276 113.691 126.276 102.582C126.276 91.4727 103.319 82.4668 75 82.4668C46.6809 82.4668 23.7236 91.4727 23.7236 102.582C23.7236 113.691 46.6809 122.697 75 122.697Z" fill="#D4FCC2"/>
<path d="M56.8486 53.8787C57.2417 51.4148 59.6333 49.4107 62.1889 49.4023L58.8917 57.9385C57.4181 57.2273 56.5625 55.6746 56.8486 53.8787Z" fill="#58F74A"/>
<path d="M58.8903 58.2515C58.843 58.2515 58.7972 58.2418 58.7542 58.221C57.1097 57.4265 56.2403 55.7029 56.5389 53.8307C56.9542 51.2265 59.4875 49.1001 62.1861 49.0918C62.1861 49.0918 62.1861 49.0918 62.1875 49.0918C62.2903 49.0918 62.3861 49.1418 62.4444 49.2265C62.5028 49.3112 62.5153 49.4196 62.4792 49.5168L59.1819 58.0529C59.15 58.1349 59.0861 58.1987 59.0055 58.2307C58.968 58.2446 58.9292 58.2515 58.8903 58.2515ZM61.7236 49.7404C59.4986 49.971 57.5028 51.7626 57.1583 53.9279C56.9236 55.4029 57.5347 56.7668 58.7278 57.4946L61.7236 49.7404Z" fill="#D4FCC2"/>
<path d="M105.94 51.5298L107.924 46.3965H63.35L62.7375 47.984C64.7861 48.0826 66.4111 49.1743 67.1847 50.7715C67.4403 50.7062 67.7014 50.6715 67.9556 50.6715C68.6778 50.6715 69.2639 50.9493 69.6 51.4479C69.9389 51.9534 69.9778 52.6479 69.7042 53.3465C69.1722 54.7173 67.6361 55.7909 66.2084 55.7909C65.4861 55.7909 64.9028 55.5173 64.5681 55.0145C64.225 54.5104 64.1875 53.8173 64.4597 53.1159C64.7139 52.4673 65.1903 51.8868 65.7736 51.4534C65.1417 50.2201 63.8334 49.4048 62.1889 49.4048L58.8917 57.9395L58.3417 59.3618L57.6347 61.1979C59.6792 61.2923 61.3028 62.3757 62.0847 63.9632C62.3292 63.9062 62.5778 63.8743 62.8195 63.8743C63.5417 63.8743 64.125 64.1479 64.4625 64.6507C64.8028 65.1562 64.8403 65.8479 64.5695 66.5493C64.0361 67.9201 62.5014 68.9923 61.0736 68.9923C60.3514 68.9923 59.7653 68.7187 59.4306 68.2187C59.0903 67.7132 59.05 67.0187 59.3236 66.3173C59.5792 65.659 60.0681 65.0687 60.6653 64.6326C60.3459 64.0257 59.8611 63.5215 59.2528 63.1715C58.6792 62.8423 57.9986 62.6451 57.2375 62.6215C57.1958 62.6201 57.1542 62.6201 57.1111 62.6201H57.0834L53.7875 71.1493L53.2375 72.5715L52.5278 74.4118C54.5764 74.502 56.2056 75.5812 56.9889 77.1715C57.2375 77.1104 57.4889 77.077 57.7389 77.077C58.4611 77.077 59.0431 77.3534 59.3792 77.8534C59.7195 78.359 59.7611 79.0507 59.4875 79.752C58.9542 81.1229 57.4181 82.1965 55.9889 82.1965C55.2667 82.1965 54.6847 81.9201 54.3486 81.4201C54.0084 80.9145 53.9681 80.2201 54.2417 79.5215C54.4959 78.8673 54.9778 78.2812 55.5695 77.8479C54.9306 76.634 53.6334 75.8354 51.9722 75.8368L48.5195 84.777L48.132 85.7798V85.7812L47.4195 87.6243C49.4639 87.7104 51.0931 88.7798 51.8834 90.3576C52.1153 90.3048 52.35 90.277 52.5806 90.277C53.3028 90.277 53.8861 90.5534 54.2236 91.0534C54.5639 91.559 54.6014 92.2507 54.3278 92.9548C53.7959 94.3243 52.2597 95.3979 50.8334 95.3979C50.1111 95.3979 49.5278 95.1215 49.1903 94.6215C48.85 94.1159 48.8125 93.4243 49.0834 92.7201C49.3458 92.052 49.8458 91.4534 50.4542 91.0159C49.8083 89.8284 48.5222 89.0479 46.8681 89.0507L43.5597 97.6132L43.0278 98.9895L40.1208 106.513H84.6945L89.9 93.0382H62.1945L78.3556 51.5312H105.94V51.5298ZM76.0292 102.28H53.8986L54.45 100.852H76.582L76.0292 102.28ZM78.3639 96.2409L77.8097 97.6687H55.6806L56.2306 96.2409H78.3639Z" fill="#002928" stroke="#D4FCC2" stroke-width="4.5" stroke-miterlimit="10" stroke-linecap="round" stroke-linejoin="round"/>
<path d="M66.8167 53.8797C67.2709 53.8797 67.675 53.4894 67.6806 53.0575C67.6875 52.6075 67.6389 52.1727 67.5389 51.7602C67.6223 51.7491 67.7042 51.7422 67.7848 51.7422C68.1639 51.7422 68.4625 51.8755 68.6264 52.1158C68.7973 52.3714 68.8098 52.7241 68.657 53.113C68.3181 53.9825 67.275 54.7186 66.3792 54.7186C66.0014 54.7186 65.7028 54.5852 65.5389 54.3422C65.3667 54.0866 65.357 53.7339 65.507 53.345C65.6306 53.0269 65.8486 52.7283 66.1181 52.4755C66.1639 52.7255 66.1861 52.9852 66.182 53.2533C66.1778 53.6116 66.4445 53.8797 66.8167 53.8797Z" fill="#9AFCB3"/>
<path d="M66.3792 55.0316C65.8931 55.0316 65.5028 54.8497 65.2806 54.5178C65.0514 54.1775 65.0278 53.7205 65.2167 53.233C65.3528 52.8816 65.5917 52.5414 65.907 52.2483C65.9903 52.1705 66.1097 52.1441 66.2181 52.1803C66.3264 52.2164 66.407 52.308 66.4278 52.4205C66.4778 52.6928 66.5014 52.9747 66.4972 53.2594C66.4959 53.3469 66.5236 53.4233 66.5778 53.4775C66.6361 53.5358 66.7195 53.5678 66.8181 53.5678C67.0986 53.5678 67.3667 53.3178 67.3695 53.0539C67.375 52.6358 67.3306 52.2261 67.2361 51.8344C67.2153 51.7483 67.232 51.658 67.282 51.5858C67.332 51.5136 67.4097 51.465 67.4972 51.4525C67.5945 51.4386 67.6931 51.4316 67.7861 51.4316C68.2722 51.4316 68.6625 51.6136 68.8861 51.9428C69.1167 52.2886 69.1389 52.7441 68.9486 53.2289C68.5611 54.2233 67.4097 55.0316 66.3792 55.0316ZM65.8722 53.2983C65.8445 53.3511 65.8209 53.4053 65.8 53.4594C65.6875 53.7497 65.6875 54.0025 65.8 54.1691C65.9028 54.3233 66.1097 54.408 66.3806 54.408C67.1472 54.408 68.0764 53.7511 68.3681 53.0025C68.482 52.7122 68.482 52.4608 68.3681 52.2914C68.2834 52.1664 68.1264 52.0872 67.9209 52.0636C67.975 52.39 68 52.7247 67.9945 53.0622C67.9861 53.6636 67.4375 54.1928 66.8181 54.1928C66.5514 54.1928 66.3084 54.0941 66.1334 53.9164C65.9709 53.7525 65.8792 53.5358 65.8722 53.2983Z" fill="#D4FCC2"/>
<path d="M66.2083 56.1041C65.3778 56.1041 64.7028 55.7791 64.307 55.1902C63.9083 54.6013 63.8583 53.8041 64.1681 53.0041C64.4333 52.325 64.9375 51.6861 65.5861 51.2041C65.6403 51.1638 65.7056 51.143 65.7722 51.143C65.7958 51.143 65.8195 51.1458 65.8431 51.1513C65.932 51.1722 66.0083 51.2319 66.05 51.3138C66.2278 51.6611 66.3542 52.0347 66.425 52.425C66.4445 52.5291 66.4083 52.6375 66.3306 52.7097C66.0833 52.9402 65.9 53.2013 65.7972 53.4638C65.6847 53.7541 65.6847 54.0069 65.7972 54.1736C65.9014 54.3277 66.107 54.4125 66.3778 54.4125C67.1445 54.4125 68.0736 53.7555 68.3653 53.0069C68.4792 52.7166 68.4792 52.4652 68.3653 52.2958C68.2625 52.1444 68.0556 52.0597 67.7833 52.0597C67.7181 52.0597 67.65 52.0652 67.5806 52.075C67.5653 52.0763 67.5514 52.0777 67.5375 52.0777C67.3944 52.0777 67.2681 51.9805 67.2333 51.8388C67.1556 51.5166 67.0445 51.2055 66.9028 50.9125C66.8611 50.8277 66.8611 50.7291 66.9014 50.6444C66.9417 50.5597 67.0167 50.4958 67.1083 50.4736C67.3944 50.4013 67.6792 50.3652 67.9556 50.3652C68.7847 50.3652 69.4611 50.6902 69.8583 51.2791C70.257 51.8736 70.3056 52.6708 69.9958 53.4666C69.4194 54.943 67.7556 56.1041 66.2083 56.1041Z" fill="#58F74A"/>
<path d="M67.957 50.6719C68.6792 50.6719 69.2639 50.9483 69.6 51.4483C69.9389 51.9538 69.9792 52.6469 69.7056 53.3469C69.1722 54.7177 67.6361 55.7899 66.2097 55.7899C65.4875 55.7899 64.9042 55.5149 64.5681 55.0135C64.2264 54.5094 64.1889 53.8163 64.4611 53.1149C64.7139 52.4663 65.1903 51.8858 65.7736 51.4524C65.9361 51.7691 66.0528 52.1122 66.1195 52.4774C65.8486 52.7302 65.632 53.0288 65.5084 53.3469C65.3584 53.7358 65.3681 54.0885 65.5403 54.3441C65.7028 54.5872 66.0014 54.7205 66.3792 54.7205C67.275 54.7205 68.3195 53.9844 68.657 53.1149C68.8084 52.726 68.7972 52.3733 68.6264 52.1177C68.4625 51.8774 68.1653 51.7441 67.7847 51.7441C67.7042 51.7441 67.6222 51.7497 67.5389 51.7622C67.4556 51.4149 67.3361 51.0844 67.1847 50.7719C67.4417 50.7066 67.7014 50.6719 67.957 50.6719ZM67.957 50.0469C67.6556 50.0469 67.3459 50.0872 67.0347 50.1649C66.8528 50.2108 66.7 50.3358 66.6209 50.5066C66.5417 50.6774 66.5431 50.8747 66.625 51.0441C66.757 51.3177 66.8611 51.608 66.9334 51.908C67.0014 52.1927 67.2556 52.3872 67.5403 52.3872C67.5695 52.3872 67.5986 52.3858 67.6278 52.3816C67.682 52.3733 67.7361 52.3705 67.7875 52.3705C67.9459 52.3705 68.0695 52.4094 68.1111 52.4705C68.15 52.5288 68.1625 52.6719 68.0778 52.8899C67.832 53.5219 67.0236 54.0969 66.382 54.0969C66.225 54.0969 66.1028 54.0594 66.0611 53.9983C66.0222 53.9399 66.007 53.7955 66.0931 53.5747C66.1778 53.3566 66.3361 53.1358 66.5486 52.9372C66.7042 52.7913 66.775 52.5774 66.7361 52.3677C66.6584 51.9469 66.5222 51.5455 66.3306 51.1705C66.2472 51.0066 66.0959 50.8885 65.9167 50.8469C65.8695 50.8358 65.8222 50.8302 65.775 50.8302C65.6417 50.8302 65.5111 50.8733 65.4028 50.9538C64.707 51.4705 64.1667 52.158 63.8806 52.8913C63.532 53.7899 63.5959 54.6927 64.0514 55.3677C64.5056 56.0455 65.2736 56.4191 66.2111 56.4191C67.9056 56.4191 69.6597 55.1969 70.2903 53.5774C70.6389 52.6858 70.5778 51.783 70.1222 51.1038C69.6611 50.4205 68.8931 50.0469 67.957 50.0469Z" fill="#D4FCC2"/>
<path d="M53.3708 20.5059L63.3514 46.3961L62.7375 47.9836C62.6361 47.9795 62.5319 47.9767 62.4292 47.9767C59.0528 47.9767 55.8875 50.6225 55.368 53.8795C54.9722 56.3628 56.2264 58.4892 58.3417 59.36L57.6319 61.1947C57.5347 61.1906 57.4375 61.1878 57.3389 61.1878C53.9625 61.1878 50.7958 63.835 50.2778 67.0906C49.8819 69.5697 51.1305 71.6934 53.2389 72.567L52.5278 74.4072C52.4361 74.4045 52.343 74.4003 52.2486 74.4003C48.8722 74.4003 45.7042 77.0475 45.1847 80.3045C44.7903 82.7767 46.0347 84.8975 48.1347 85.7739L47.4222 87.6183C47.3069 87.6142 47.2361 87.6128 47.1667 87.6128C43.9833 87.6128 40.8875 90.017 40.1764 93.1017C39.5667 95.742 40.8236 98.0517 43.0319 98.9822L40.125 106.507L30.0555 80.6503L53.3708 20.5059Z" fill="#002928"/>
<path d="M40.1222 106.824C39.9931 106.824 39.8778 106.745 39.8306 106.625L29.7611 80.7684C29.7334 80.6961 29.7334 80.6142 29.7611 80.542L53.0792 20.3934C53.1264 20.2725 53.2417 20.1934 53.3708 20.1934C53.5 20.1934 53.6153 20.2725 53.6625 20.3934L63.6431 46.2836C63.6708 46.3559 63.6708 46.4364 63.6431 46.5086L63.0292 48.0961C62.9806 48.2211 62.8583 48.3017 62.7222 48.2961C62.6264 48.292 62.5264 48.2906 62.4292 48.2906C59.2014 48.2906 56.1722 50.8198 55.6764 53.9295C55.3125 56.2073 56.4056 58.2267 58.4597 59.0725C58.6167 59.1378 58.6931 59.3156 58.632 59.4739L57.9222 61.3086C57.8736 61.435 57.75 61.5142 57.6153 61.5086C57.5236 61.5045 57.4306 61.5031 57.3375 61.5031C54.1097 61.5031 51.0806 64.0323 50.5847 67.142C50.2222 69.4142 51.3097 71.4322 53.357 72.2809C53.5139 72.3461 53.5903 72.5239 53.5292 72.6822L52.8181 74.5225C52.7695 74.6461 52.6486 74.7253 52.5153 74.7225C52.4222 74.7197 52.3361 74.717 52.2472 74.717C49.0181 74.717 45.9889 77.2475 45.4917 80.3586C45.1306 82.6253 46.2139 84.6392 48.2528 85.4906C48.4084 85.5559 48.4847 85.7336 48.4236 85.892L47.7111 87.7364C47.6639 87.8573 47.5486 87.9364 47.4195 87.9364C47.4153 87.9364 47.4125 87.9364 47.4083 87.9364C47.2986 87.9323 47.2306 87.9309 47.1639 87.9309C44.0931 87.9309 41.157 90.235 40.4778 93.1767C39.925 95.5739 40.9986 97.7934 43.15 98.7003C43.3056 98.7656 43.3806 98.9434 43.3195 99.1003L40.4125 106.625C40.3681 106.743 40.2514 106.824 40.1222 106.824ZM30.3889 80.6545L40.1208 105.648L42.632 99.1503C40.3764 98.0531 39.2709 95.635 39.8709 93.0364C40.6125 89.8225 43.8167 87.3059 47.1667 87.3059C47.1806 87.3059 47.1959 87.3059 47.2097 87.3059L47.7361 85.942C45.6014 84.9128 44.4847 82.7156 44.8764 80.2586C45.4181 76.8572 48.7264 74.0906 52.2486 74.0906C52.2708 74.0906 52.2931 74.0906 52.3153 74.0906L52.8403 72.7336C50.6986 71.7072 49.5764 69.5073 49.9695 67.0434C50.5111 63.6434 53.8181 60.8767 57.3403 60.8767C57.3681 60.8767 57.3945 60.8767 57.4222 60.8767L57.9445 59.5253C55.7931 58.5017 54.6667 56.3003 55.0611 53.8295C55.6028 50.4295 58.9097 47.6642 62.4306 47.6642C62.4625 47.6642 62.4945 47.6642 62.5264 47.6642L63.0167 46.3948L53.3708 21.3711L30.3889 80.6545Z" fill="#D4FCC2"/>
<path d="M57.0834 62.6191L53.7875 71.1483C52.3195 70.433 51.4709 68.8858 51.757 67.0928C52.1472 64.6428 54.5153 62.6469 57.0834 62.6191Z" fill="#58F74A"/>
<path d="M53.7875 71.4608C53.7403 71.4608 53.6945 71.4497 53.65 71.4289C52.0139 70.6316 51.15 68.9108 51.4472 67.0428C51.8584 64.4594 54.3847 62.3358 57.0778 62.3066C57.0792 62.3066 57.0806 62.3066 57.0806 62.3066C57.1834 62.3066 57.2792 62.3566 57.3375 62.4414C57.3972 62.5261 57.4097 62.6358 57.3722 62.7316L54.0764 71.2608C54.0445 71.3428 53.9806 71.4066 53.8986 71.4386C53.8653 71.4539 53.8264 71.4608 53.7875 71.4608ZM56.6167 62.9608C54.3972 63.2066 52.407 64.9969 52.0667 67.1414C51.832 68.6122 52.4389 69.9733 53.6264 70.7025L56.6167 62.9608Z" fill="#D4FCC2"/>
<path d="M61.7264 67.0934C62.1792 67.0934 62.5847 66.7045 62.5903 66.2711C62.5972 65.8142 62.5458 65.3739 62.4444 64.9559C62.5139 64.9475 62.5819 64.9434 62.6486 64.9434C63.0264 64.9434 63.325 65.0767 63.4889 65.3197C63.6611 65.5753 63.6722 65.9281 63.5208 66.317C63.1819 67.1864 62.1389 67.9197 61.2431 67.9197C60.8639 67.9197 60.5653 67.7864 60.4014 67.5447C60.2306 67.2892 60.2181 66.9364 60.3708 66.5475C60.5 66.2156 60.7319 65.9031 61.0194 65.6434C61.0708 65.9086 61.0972 66.1836 61.0931 66.4684C61.0875 66.8239 61.3528 67.0934 61.7264 67.0934Z" fill="#9AFCB3"/>
<path d="M61.2431 68.2328C60.7569 68.2328 60.3667 68.0509 60.1431 67.7217C59.9125 67.3773 59.8903 66.9203 60.0806 66.4356C60.2236 66.0703 60.475 65.7161 60.8111 65.4134C60.8944 65.3384 61.0125 65.3134 61.1194 65.3481C61.2264 65.3842 61.3056 65.4745 61.3278 65.5842C61.3847 65.8731 61.4111 66.1717 61.4069 66.4745C61.4056 66.562 61.4333 66.637 61.4875 66.6911C61.5458 66.7495 61.6292 66.7814 61.7278 66.7814C62.0083 66.7814 62.2764 66.5314 62.2792 66.2675C62.2847 65.8439 62.2389 65.4286 62.1417 65.0314C62.1208 64.9439 62.1375 64.8523 62.1889 64.7786C62.2403 64.705 62.3194 64.6564 62.4083 64.6467C62.4889 64.637 62.5708 64.6328 62.65 64.6328C63.1361 64.6328 63.5264 64.8161 63.7486 65.1467C63.9778 65.487 64.0014 65.9439 63.8125 66.4314C63.425 67.4245 62.2722 68.2328 61.2431 68.2328ZM60.7806 66.4175C60.7333 66.4981 60.6931 66.58 60.6611 66.662C60.5472 66.9523 60.5472 67.2036 60.6611 67.3717C60.7639 67.5231 60.9708 67.6078 61.2431 67.6078C62.0097 67.6078 62.9389 66.9523 63.2306 66.2036C63.3431 65.9134 63.3431 65.6606 63.2306 65.4939C63.1514 65.3759 63.0111 65.2981 62.8292 65.2689C62.8847 65.5967 62.9097 65.9342 62.9042 66.2745C62.8958 66.8773 62.3458 67.405 61.7278 67.405C61.4611 67.405 61.2181 67.3064 61.0417 67.1286C60.8708 66.955 60.7778 66.7189 60.7806 66.4648C60.7806 66.4495 60.7806 66.4342 60.7806 66.4175Z" fill="#D4FCC2"/>
<path d="M46.6653 80.307C47.0569 77.8515 49.4347 75.8556 51.9764 75.832L48.5222 84.7723L48.6833 84.3543C47.225 83.6376 46.3806 82.0918 46.6653 80.307Z" fill="#58F74A"/>
<path d="M48.5222 85.0848C48.4847 85.0848 48.4472 85.0779 48.4097 85.064C48.2486 85.0015 48.1681 84.8209 48.2306 84.6598L48.2931 84.4987C46.832 83.6515 46.0764 82.0181 46.357 80.257C46.7695 77.6681 49.2903 75.5431 51.9736 75.5195C51.975 75.5195 51.975 75.5195 51.9764 75.5195C52.0792 75.5195 52.175 75.5695 52.2333 75.6543C52.2917 75.739 52.3056 75.8487 52.2681 75.9445L48.8139 84.8848C48.7653 85.0098 48.6472 85.0848 48.5222 85.0848ZM46.9736 80.3556C46.7403 81.8195 47.3431 83.1765 48.5208 83.907L51.5097 76.1723C49.3 76.4168 47.3167 78.207 46.9736 80.3556Z" fill="#D4FCC2"/>
<path d="M56.6347 80.3076C57.0875 80.3076 57.493 79.9173 57.4986 79.484C57.5055 79.0243 57.4528 78.5798 57.35 78.1604C57.4236 78.1506 57.4972 78.1465 57.5694 78.1465C57.9486 78.1465 58.2458 78.2798 58.4097 78.5229C58.5819 78.7784 58.5917 79.1312 58.4417 79.5201C58.1028 80.3895 57.0597 81.1229 56.1639 81.1229C55.7861 81.1229 55.4875 80.9895 55.3236 80.7479C55.1514 80.4923 55.1389 80.1368 55.2917 79.7506C55.4194 79.4243 55.6458 79.1159 55.9278 78.859C55.9792 79.1243 56.0042 79.3993 56 79.684C55.9944 80.0395 56.2625 80.3076 56.6347 80.3076Z" fill="#9AFCB3"/>
<path d="M56.1639 81.4342C55.6792 81.4342 55.2889 81.2523 55.0653 80.9217C54.8333 80.5787 54.8097 80.1217 55 79.6356C55.1403 79.2759 55.3889 78.9259 55.7167 78.6259C55.8 78.5495 55.9181 78.5245 56.025 78.5592C56.132 78.594 56.2125 78.6856 56.2333 78.7954C56.2903 79.0829 56.3167 79.3815 56.3125 79.6842C56.3111 79.7717 56.3389 79.8467 56.3931 79.9023C56.4514 79.962 56.5347 79.9926 56.6347 79.9926C56.9153 79.9926 57.1833 79.7412 57.1861 79.4759C57.1917 79.0495 57.1445 78.6315 57.0458 78.2315C57.025 78.1454 57.0417 78.0537 57.0917 77.9801C57.1417 77.9065 57.2222 77.8579 57.3097 77.8467C57.3958 77.8356 57.4833 77.8301 57.5681 77.8301C58.0542 77.8301 58.4445 78.012 58.6667 78.344C58.8972 78.6842 58.9194 79.1412 58.7306 79.6287C58.3458 80.6259 57.1931 81.4342 56.1639 81.4342ZM55.6889 79.6426C55.6472 79.7162 55.6125 79.7898 55.5833 79.8634C55.4695 80.1523 55.4708 80.4051 55.5833 80.5731C55.6861 80.7259 55.8931 80.8106 56.1639 80.8106C56.9306 80.8106 57.8597 80.1551 58.1514 79.4065C58.2639 79.1162 58.2639 78.8634 58.1514 78.6967C58.0708 78.5759 57.925 78.4981 57.7347 78.4704C57.7917 78.8037 57.8181 79.144 57.8125 79.4884C57.8042 80.0912 57.2542 80.6204 56.6361 80.6204C56.3695 80.6204 56.125 80.5217 55.9486 80.344C55.7764 80.1704 55.6847 79.9329 55.6875 79.6787C55.6875 79.6662 55.6875 79.6537 55.6889 79.6426Z" fill="#D4FCC2"/>
<path d="M55.9931 82.5076C55.1639 82.5076 54.4889 82.1826 54.0917 81.5937C53.6931 81.0006 53.6417 80.2034 53.9528 79.4062C54.2195 78.7214 54.7278 78.077 55.3862 77.5937C55.4403 77.5534 55.5056 77.5326 55.5709 77.5326C55.5945 77.5326 55.6181 77.5353 55.6403 77.5409C55.7292 77.5617 55.8042 77.6187 55.8473 77.7006C56.0278 78.0437 56.157 78.4131 56.2334 78.7992C56.2542 78.9062 56.2181 79.0159 56.1375 79.0895C55.8792 79.3256 55.6875 79.5923 55.582 79.8645C55.4681 80.1534 55.4681 80.4062 55.582 80.5742C55.6848 80.727 55.8917 80.8103 56.1625 80.8103C56.9292 80.8103 57.8584 80.1548 58.15 79.4062C58.2625 79.1159 58.2625 78.8631 58.15 78.6964C58.0473 78.5423 57.8403 78.4576 57.5695 78.4576C57.5112 78.4576 57.4514 78.4617 57.3889 78.4687C57.3764 78.4701 57.3625 78.4714 57.35 78.4714C57.2084 78.4714 57.082 78.3742 57.0473 78.2339C56.9681 77.9117 56.8542 77.6006 56.7098 77.3076C56.6681 77.2228 56.6667 77.1228 56.707 77.0367C56.7473 76.9506 56.8237 76.8881 56.9153 76.8645C57.1931 76.7964 57.4709 76.7617 57.7403 76.7617C58.5709 76.7617 59.2459 77.0867 59.6417 77.6756C60.0403 78.2673 60.0917 79.0645 59.7806 79.8617C59.2042 81.3464 57.5403 82.5076 55.9931 82.5076Z" fill="#58F74A"/>
<path d="M57.7403 77.0762C58.4625 77.0762 59.0459 77.3512 59.382 77.8526C59.7222 78.3581 59.7625 79.0498 59.4889 79.7512C58.9556 81.122 57.4195 82.1942 55.9931 82.1942C55.2709 82.1942 54.6875 81.9178 54.3514 81.4178C54.0111 80.9123 53.9709 80.2192 54.2445 79.5192C54.4986 78.8651 54.982 78.2789 55.5722 77.8442C55.7361 78.1567 55.857 78.497 55.9278 78.8581C55.6459 79.1151 55.4195 79.4234 55.2917 79.7498C55.1403 80.1373 55.1514 80.4914 55.3236 80.747C55.4861 80.9887 55.7847 81.122 56.1639 81.122C57.0598 81.122 58.1028 80.3873 58.4417 79.5192C58.5917 79.1303 58.582 78.7776 58.4097 78.522C58.2472 78.2789 57.95 78.1456 57.5709 78.1456C57.4986 78.1456 57.425 78.1498 57.3514 78.1595C57.2653 77.8123 57.1445 77.4817 56.9903 77.1692C57.2389 77.1081 57.4917 77.0762 57.7403 77.0762ZM57.7403 76.4512C57.4459 76.4512 57.1445 76.4887 56.8403 76.5623C56.6556 76.6067 56.5028 76.7331 56.4222 76.9053C56.3417 77.0776 56.3445 77.2762 56.4278 77.4456C56.5625 77.7192 56.6681 78.0095 56.7417 78.3095C56.8111 78.5914 57.0639 78.7845 57.3472 78.7845C57.3736 78.7845 57.4 78.7831 57.4264 78.779C57.475 78.7734 57.5223 78.7692 57.5667 78.7692C57.7236 78.7692 57.8459 78.8067 57.8875 78.8678C57.9264 78.9262 57.9417 79.0706 57.8556 79.2915C57.6111 79.9206 56.8028 80.4956 56.1611 80.4956C56.007 80.4956 55.8806 80.4567 55.8389 80.3956C55.8 80.3387 55.7847 80.1942 55.8709 79.9762C55.9584 79.7512 56.1278 79.5178 56.3459 79.3178C56.507 79.1706 56.5792 78.9498 56.5375 78.7359C56.4556 78.3192 56.3167 77.9206 56.1222 77.5512C56.0375 77.3901 55.8861 77.2734 55.7097 77.2331C55.6639 77.222 55.6167 77.2178 55.5695 77.2178C55.4375 77.2178 55.307 77.2595 55.1986 77.3401C54.4931 77.8595 53.9459 78.5526 53.6584 79.2915C53.3097 80.1845 53.3723 81.0873 53.8292 81.7665C54.2861 82.4442 55.0542 82.8178 55.9903 82.8178C57.6848 82.8178 59.4389 81.5956 60.0695 79.9762C60.4181 79.0817 60.3556 78.1803 59.8986 77.5012C59.4459 76.8248 58.6778 76.4512 57.7403 76.4512Z" fill="#D4FCC2"/>
<path d="M107.925 46.3965L110.978 50.559L108.994 55.6923L105.942 51.5298L107.925 46.3965Z" fill="#58F74A"/>
<path d="M108.994 56.0048C108.896 56.0048 108.801 55.9576 108.743 55.877L105.69 51.7145C105.628 51.6284 105.613 51.5159 105.651 51.4173L107.635 46.284C107.676 46.177 107.772 46.102 107.885 46.0868C107.999 46.0715 108.11 46.1201 108.178 46.2118L111.231 50.3743C111.293 50.4604 111.308 50.5729 111.269 50.6715L109.286 55.8048C109.244 55.9118 109.149 55.9868 109.036 56.002C109.021 56.0034 109.007 56.0048 108.994 56.0048ZM106.294 51.4826L108.908 55.0465L110.624 50.6048L108.01 47.0409L106.294 51.4826Z" fill="#D4FCC2"/>
<path d="M41.575 93.5191C41.9653 91.0691 44.3334 89.076 46.8709 89.0469L43.5625 97.6094L43.5806 97.5622C42.1292 96.8413 41.2903 95.301 41.575 93.5191Z" fill="#58F74A"/>
<path d="M43.5625 97.922C43.525 97.922 43.4875 97.915 43.45 97.9011C43.3792 97.8734 43.325 97.8234 43.2903 97.7623C41.7722 96.9303 40.9806 95.265 41.2667 93.4706C41.6778 90.89 44.1903 88.765 46.8681 88.7345C46.9695 88.7317 47.0695 88.7831 47.1292 88.8692C47.1889 88.9539 47.2014 89.0636 47.1639 89.1595L43.8556 97.722C43.8056 97.8456 43.6875 97.922 43.5625 97.922ZM41.8833 93.5678C41.6472 95.0498 42.2306 96.3775 43.4181 97.1136L46.4042 89.3873C44.2 89.6373 42.225 91.4261 41.8833 93.5678Z" fill="#D4FCC2"/>
<path d="M51.5445 93.5213C51.9972 93.5213 52.4014 93.1324 52.4084 92.699C52.4153 92.231 52.3611 91.781 52.2556 91.3546C52.3084 91.3504 52.3597 91.3477 52.4111 91.3477C52.7903 91.3477 53.0889 91.481 53.2528 91.724C53.4236 91.9782 53.4361 92.3324 53.2834 92.7199C52.9445 93.5907 51.9028 94.3254 51.007 94.3254C50.6278 94.3254 50.3292 94.1921 50.1653 93.949C49.9945 93.6949 49.982 93.3407 50.1348 92.9532C50.2709 92.6046 50.5181 92.2782 50.825 92.0115C50.8848 92.2949 50.9153 92.5921 50.9097 92.8977C50.9042 93.2532 51.1709 93.5213 51.5445 93.5213Z" fill="#9AFCB3"/>
<path d="M51.007 94.636C50.5195 94.636 50.1292 94.4526 49.907 94.1221C49.6764 93.7804 49.6542 93.3235 49.8445 92.8374C49.9931 92.454 50.2611 92.086 50.6195 91.7749C50.7028 91.7027 50.8195 91.679 50.9236 91.7138C51.0292 91.7485 51.107 91.8374 51.1306 91.9457C51.1959 92.2554 51.2278 92.5776 51.2222 92.9013C51.2209 92.9874 51.2486 93.0624 51.3028 93.1165C51.3611 93.1763 51.4445 93.2068 51.5445 93.2068C51.8236 93.2068 52.0917 92.9568 52.0959 92.6915C52.1014 92.2596 52.0542 91.8346 51.9514 91.429C51.9292 91.3402 51.9472 91.2471 52 91.1721C52.0528 91.0971 52.1361 91.0499 52.2264 91.0415C52.2875 91.036 52.35 91.0332 52.4111 91.0332C52.8986 91.0332 53.2889 91.2165 53.5111 91.5471C53.7417 91.8888 53.7639 92.3457 53.5736 92.8318C53.1875 93.8276 52.0361 94.636 51.007 94.636ZM50.5959 92.7388C50.525 92.8471 50.4681 92.9568 50.425 93.0651C50.3111 93.3554 50.3111 93.6068 50.4236 93.7735C50.5264 93.9276 50.7334 94.011 51.0056 94.011C51.275 94.011 51.5639 93.9304 51.8375 93.7929C51.7431 93.8193 51.6431 93.8332 51.5431 93.8332C51.2764 93.8332 51.032 93.7346 50.8556 93.5568C50.6847 93.3832 50.5917 93.1471 50.5945 92.8929C50.5972 92.8415 50.5972 92.7902 50.5959 92.7388ZM52.6431 91.6832C52.7 92.0165 52.725 92.3568 52.7209 92.7027C52.7167 92.9138 52.6472 93.1165 52.532 93.2888C52.7347 93.0832 52.8972 92.8499 52.9917 92.6054C53.1056 92.3151 53.1056 92.0652 52.9931 91.8971C52.9222 91.7915 52.8014 91.7179 52.6431 91.6832Z" fill="#D4FCC2"/>
<path d="M50.8361 95.7073C50.0056 95.7073 49.3306 95.3823 48.9333 94.7935C48.5347 94.2018 48.4847 93.4032 48.7958 92.6046C49.0695 91.9032 49.5945 91.2476 50.275 90.7587C50.3292 90.7198 50.3917 90.7004 50.457 90.7004C50.4806 90.7004 50.5042 90.7032 50.5264 90.7087C50.6139 90.7282 50.6889 90.7851 50.7306 90.8643C50.9139 91.2004 51.0472 91.5643 51.1292 91.9448C51.1528 92.0559 51.1139 92.1712 51.0292 92.2462C50.7514 92.4879 50.5375 92.7782 50.425 93.0643C50.3111 93.3546 50.3111 93.6046 50.4236 93.7726C50.5264 93.9268 50.7333 94.0101 51.0056 94.0101C51.7722 94.0101 52.7 93.3532 52.9903 92.6046C53.1042 92.3143 53.1042 92.0643 52.9917 91.8962C52.8889 91.7421 52.682 91.6587 52.4097 91.6587C52.3681 91.6587 52.325 91.6615 52.282 91.6643C52.2722 91.6657 52.2639 91.6657 52.2542 91.6657C52.1125 91.6657 51.9861 91.5698 51.9514 91.4296C51.8695 91.1046 51.7542 90.7907 51.6056 90.4962C51.5625 90.4101 51.5611 90.3101 51.6028 90.2226C51.6431 90.1365 51.7222 90.0726 51.8153 90.0518C52.0736 89.9921 52.332 89.9629 52.5806 89.9629C53.4111 89.9629 54.0861 90.2879 54.4833 90.8768C54.882 91.4684 54.932 92.2671 54.6208 93.0657C54.0445 94.5462 52.382 95.7073 50.8361 95.7073Z" fill="#58F74A"/>
<path d="M52.582 90.2734C53.3042 90.2734 53.8889 90.5498 54.225 91.0498C54.5653 91.5554 54.6042 92.2484 54.3306 92.9498C53.7972 94.3207 52.2611 95.3929 50.8361 95.3929C50.1125 95.3929 49.5292 95.1165 49.1931 94.6165C48.8528 94.1109 48.8139 93.4179 49.0875 92.7165C49.3486 92.0471 49.8486 91.4484 50.4583 91.0109C50.625 91.3179 50.75 91.6526 50.825 92.0082C50.5195 92.2748 50.2708 92.6012 50.1347 92.9498C49.9833 93.3373 49.9945 93.6915 50.1653 93.9457C50.3278 94.1887 50.6264 94.3221 51.007 94.3221C51.9028 94.3221 52.9445 93.5873 53.2833 92.7165C53.4347 92.329 53.4236 91.9748 53.2528 91.7207C53.0903 91.4776 52.7917 91.3443 52.4111 91.3443C52.3597 91.3443 52.3083 91.347 52.2556 91.3512C52.1681 91.0012 52.0431 90.6665 51.8861 90.354C52.1181 90.3026 52.3514 90.2734 52.582 90.2734ZM52.582 89.6484C52.3097 89.6484 52.0292 89.6804 51.7472 89.7457C51.5597 89.7887 51.4028 89.9151 51.3208 90.0887C51.2389 90.2623 51.2417 90.4637 51.3278 90.6359C51.4653 90.9096 51.5736 91.2026 51.65 91.5054C51.7208 91.7859 51.9722 91.9776 52.2556 91.9776C52.275 91.9776 52.2931 91.9762 52.3125 91.9748C52.3472 91.972 52.3806 91.9707 52.4111 91.9707C52.5695 91.9707 52.6917 92.0082 52.7333 92.0693C52.7722 92.1276 52.7875 92.2707 52.7014 92.4887C52.4556 93.1221 51.6472 93.6971 51.007 93.6971C50.8486 93.6971 50.7264 93.6595 50.6847 93.5984C50.6458 93.5401 50.6306 93.3971 50.7167 93.179C50.8111 92.9373 50.9945 92.6901 51.2347 92.4818C51.4056 92.3332 51.4833 92.1026 51.4361 91.8804C51.3486 91.4707 51.2042 91.079 51.007 90.7151C50.9208 90.5582 50.7722 90.4443 50.5972 90.404C50.5514 90.3929 50.5042 90.3887 50.457 90.3887C50.3278 90.3887 50.2 90.429 50.0931 90.5054C49.3639 91.029 48.8 91.7346 48.5042 92.4915C48.1556 93.3873 48.2167 94.2901 48.6736 94.9679C49.1306 95.6457 49.8986 96.0193 50.8361 96.0193C52.5292 96.0193 54.282 94.7971 54.9139 93.1776C55.2625 92.2818 55.2014 91.379 54.7445 90.7012C54.2861 90.0221 53.5195 89.6484 52.582 89.6484Z" fill="#D4FCC2"/>
<path d="M78.3626 96.2422L77.8098 97.67H55.6806L56.2306 96.2422H78.3626Z" fill="#58F74A"/>
<path d="M77.8098 97.9825H55.6806C55.5778 97.9825 55.4806 97.9311 55.4223 97.8464C55.3639 97.7616 55.3514 97.6533 55.3889 97.5575L55.9403 96.1297C55.9862 96.0089 56.1028 95.9297 56.232 95.9297H78.3639C78.4667 95.9297 78.5639 95.9811 78.6223 96.0658C78.6806 96.1505 78.6931 96.2589 78.6556 96.3547L78.1028 97.7825C78.0556 97.9033 77.9389 97.9825 77.8098 97.9825ZM56.1362 97.3575H77.5959L77.907 96.5547H56.4459L56.1362 97.3575Z" fill="#58F74A"/>
<path d="M76.582 100.854L76.0292 102.281H53.8986L54.45 100.854H76.582Z" fill="#58F74A"/>
<path d="M76.0292 102.594H53.8986C53.7958 102.594 53.6986 102.542 53.6403 102.458C53.582 102.373 53.5695 102.265 53.607 102.169L54.1583 100.741C54.2042 100.62 54.3208 100.541 54.45 100.541H76.582C76.6847 100.541 76.7819 100.592 76.8403 100.677C76.8986 100.762 76.9111 100.87 76.8736 100.966L76.3208 102.394C76.2736 102.515 76.1583 102.594 76.0292 102.594ZM54.3542 101.969H75.8139L76.125 101.166H54.6639L54.3542 101.969Z" fill="#58F74A"/>
<path d="M89.9027 93.0371L92.9555 97.1996L87.7486 110.673L84.6958 106.512L89.9027 93.0371Z" fill="#58F74A"/>
<path d="M87.7486 110.986C87.65 110.986 87.5556 110.938 87.4972 110.858L84.4444 106.697C84.3819 106.611 84.3667 106.498 84.4055 106.4L89.6125 92.9246C89.6542 92.8177 89.75 92.7427 89.8625 92.7274C89.9764 92.7121 90.0875 92.7607 90.1556 92.8524L93.2083 97.0149C93.2708 97.101 93.2861 97.2135 93.2472 97.3121L88.0403 110.787C87.9986 110.894 87.9028 110.969 87.7903 110.984C87.7764 110.986 87.7625 110.986 87.7486 110.986ZM85.0486 106.465L87.6625 110.029L92.6014 97.2454L89.9875 93.6816L85.0486 106.465Z" fill="#D4FCC2"/>
<path d="M84.6959 106.512L87.7486 110.673H43.175L40.1223 106.512H84.6959Z" fill="#58F74A"/>
<path d="M87.7486 110.985H43.175C43.075 110.985 42.982 110.938 42.9236 110.857L39.8709 106.694C39.8014 106.6 39.7903 106.474 39.8445 106.368C39.8972 106.263 40.0056 106.197 40.1236 106.197H84.6972C84.7972 106.197 84.8903 106.244 84.9486 106.325L88.0014 110.488C88.0708 110.582 88.082 110.708 88.0278 110.814C87.9736 110.919 87.8667 110.985 87.7486 110.985ZM43.3334 110.36H87.132L84.5375 106.822H40.7389L43.3334 110.36Z" fill="#D4FCC2"/>
<path d="M116.893 63.084L119.946 67.2465L108.285 97.1993L105.232 93.0368L116.893 63.084Z" fill="#58F74A"/>
<path d="M108.285 97.5118C108.186 97.5118 108.092 97.4645 108.033 97.384L104.981 93.2215C104.917 93.1354 104.903 93.0229 104.942 92.9229L116.603 62.9701C116.644 62.8632 116.74 62.7882 116.853 62.7743C116.965 62.759 117.078 62.8076 117.146 62.8993L120.199 67.0618C120.263 67.1479 120.276 67.2604 120.238 67.3604L108.576 97.3132C108.535 97.4201 108.439 97.4951 108.326 97.509C108.311 97.5104 108.299 97.5118 108.285 97.5118ZM105.585 92.9895L108.2 96.5548L119.593 67.2937L116.978 63.7284L105.585 92.9895Z" fill="#D4FCC2"/>
<path d="M105.232 93.0371H89.9028H62.1945L65.2472 97.1996H92.9556H108.285L105.232 93.0371Z" fill="#58F74A"/>
<path d="M108.285 97.5121H65.2472C65.1472 97.5121 65.0542 97.4649 64.9958 97.3843L61.9431 93.2218C61.8736 93.1274 61.8625 93.001 61.9167 92.8954C61.9694 92.7899 62.0778 92.7246 62.1958 92.7246H105.233C105.333 92.7246 105.426 92.7718 105.485 92.8524L108.538 97.0149C108.607 97.1093 108.618 97.2357 108.564 97.3413C108.51 97.4454 108.403 97.5121 108.285 97.5121ZM65.4056 96.8871H107.668L105.074 93.3496H62.8111L65.4056 96.8871Z" fill="#D4FCC2"/>
<path d="M97.9306 56.5273C100.846 56.5273 102.831 57.9996 103.415 60.2148C103.642 61.0746 103.657 62.0454 103.435 63.0857C103.343 63.5162 103.21 63.9579 103.035 64.4093C101.468 68.4357 97.0458 71.7565 92.8208 72.2343C92.4958 72.2148 92.1653 72.2051 91.8278 72.2051C91.4903 72.2051 91.1514 72.2148 90.8125 72.2343C86.9583 71.7565 85.1222 68.4357 86.6903 64.4093C88.3819 60.0551 93.4153 56.5273 97.9306 56.5273Z" fill="#002928"/>
<path d="M90.8084 72.5448C90.7958 72.5448 90.7833 72.5434 90.7695 72.5421C88.8889 72.3087 87.3917 71.4059 86.5514 69.999C85.6222 68.4434 85.5667 66.4171 86.3931 64.2934C88.1278 59.8379 93.3028 56.2129 97.9278 56.2129C100.904 56.2129 103.067 57.6782 103.714 60.1337C103.958 61.0629 103.967 62.0768 103.736 63.149C103.64 63.6004 103.5 64.0615 103.321 64.5212C101.735 68.599 97.2334 72.0476 92.85 72.5434C92.832 72.5448 92.8139 72.5462 92.7958 72.5448C92.157 72.5073 91.4903 72.5073 90.8222 72.5448C90.8208 72.5448 90.8153 72.5448 90.8084 72.5448ZM91.825 71.8907C92.1556 71.8907 92.4875 71.9004 92.8097 71.9184C96.9708 71.4365 101.236 68.1629 102.742 64.2948C102.908 63.8671 103.039 63.4379 103.128 63.0184C103.336 62.0421 103.332 61.1254 103.113 60.2934C102.542 58.1309 100.606 56.8393 97.9306 56.8393C93.5417 56.8393 88.6278 60.2865 86.9778 64.5226C86.2222 66.4629 86.2625 68.2948 87.0903 69.6809C87.825 70.9115 89.1486 71.7059 90.8208 71.9198C91.157 71.9004 91.4945 71.8907 91.825 71.8907Z" fill="#D4FCC2"/>
<path d="M106.756 51.5293L116.893 63.0835H103.433C103.656 62.0432 103.64 61.0724 103.414 60.2126L106.756 51.5293Z" fill="#58F74A"/>
<path d="M116.893 63.3962H103.433C103.339 63.3962 103.25 63.3531 103.19 63.2795C103.131 63.2059 103.108 63.1101 103.128 63.017C103.336 62.0406 103.332 61.1239 103.113 60.292C103.096 60.2281 103.1 60.1614 103.124 60.1003L106.465 51.4156C106.504 51.3128 106.594 51.2392 106.703 51.2198C106.81 51.2003 106.921 51.2392 106.993 51.3212L117.131 62.8753C117.211 62.967 117.231 63.0989 117.181 63.2101C117.128 63.3253 117.017 63.3962 116.893 63.3962ZM103.811 62.7712H116.204L106.863 52.1239L103.742 60.2323C103.935 61.0239 103.957 61.8753 103.811 62.7712Z" fill="#D4FCC2"/>
<path d="M91.8251 72.2031C92.1625 72.2031 92.4931 72.2129 92.8181 72.2323C101.224 72.7337 105.357 79.6198 102.079 88.0406H69.2375C72.5167 79.6198 82.0125 72.7323 90.8084 72.2323C91.1487 72.2129 91.4876 72.2031 91.8251 72.2031Z" fill="#002928"/>
<path d="M102.079 88.3551H69.2375C69.1348 88.3551 69.0375 88.3037 68.9792 88.219C68.9209 88.1342 68.9084 88.0259 68.9459 87.9287C72.2431 79.462 81.8375 72.4301 90.7903 71.9217C91.4834 71.8829 92.1737 71.8829 92.8362 71.9217C96.8653 72.162 100.089 73.8634 101.915 76.7106C103.885 79.7842 104.047 83.8495 102.369 88.1565C102.324 88.2759 102.208 88.3551 102.079 88.3551ZM69.7 87.7301H101.864C103.385 83.6884 103.218 79.9023 101.389 77.0481C99.6737 74.3731 96.6237 72.7745 92.8 72.5454C92.1612 72.5079 91.4945 72.5079 90.8264 72.5454C82.25 73.0329 73.0667 79.6648 69.7 87.7301Z" fill="#D4FCC2"/>
<path d="M106.756 51.5293L103.414 60.214C102.829 57.9987 100.844 56.5265 97.9292 56.5265C93.4153 56.5265 88.3806 60.0543 86.6861 64.4085C85.1181 68.4349 86.9542 71.7557 90.8083 72.2335C82.0125 72.7335 72.5167 79.621 69.2375 88.0418H102.079C105.358 79.621 101.224 72.7349 92.8181 72.2335C97.0445 71.7557 101.467 68.4349 103.032 64.4085C103.208 63.9571 103.34 63.5154 103.432 63.0849H116.892L105.231 93.0376H89.9028H62.1945L78.3556 51.5307H105.94H106.756V51.5293Z" fill="#58F74A"/>
<path d="M105.232 93.3487H62.1945C62.0917 93.3487 61.9945 93.2974 61.9361 93.2126C61.8778 93.1279 61.8653 93.0196 61.9028 92.9224L78.0639 51.4154C78.1111 51.296 78.2264 51.2168 78.3556 51.2168H106.756C106.858 51.2168 106.956 51.2682 107.013 51.3529C107.071 51.4376 107.083 51.546 107.047 51.6418L103.706 60.3265C103.657 60.4529 103.529 60.5349 103.397 60.5265C103.263 60.5196 103.147 60.4251 103.113 60.2946C102.542 58.1307 100.606 56.8404 97.9306 56.8404C93.5417 56.8404 88.6278 60.2876 86.9778 64.5237C86.2222 66.464 86.2625 68.296 87.0903 69.6821C87.8292 70.9196 89.1625 71.7154 90.8472 71.9251C91.0083 71.9446 91.1264 72.0835 91.1208 72.246C91.1153 72.4071 90.9875 72.539 90.8264 72.5474C82.25 73.0349 73.0667 79.6668 69.7 87.7321H101.864C103.385 83.6904 103.218 79.9043 101.389 77.0501C99.6736 74.3751 96.6236 72.7765 92.8 72.5474C92.6375 72.5376 92.5111 72.4057 92.5056 72.2432C92.5 72.0807 92.6222 71.9432 92.7833 71.9237C96.9528 71.4529 101.233 68.1737 102.742 64.296C102.908 63.8682 103.039 63.439 103.128 63.0196C103.158 62.8751 103.286 62.7724 103.433 62.7724H116.893C116.996 62.7724 117.093 62.8237 117.151 62.9085C117.21 62.9932 117.222 63.1015 117.185 63.1987L105.524 93.1515C105.476 93.2696 105.361 93.3487 105.232 93.3487ZM62.6514 92.7237H105.018L116.436 63.396H103.682C103.59 63.7682 103.471 64.1446 103.324 64.521C101.965 68.0126 98.4695 71.0432 94.7417 72.1529C97.8806 72.746 100.388 74.3251 101.915 76.7085C103.885 79.7821 104.047 83.8474 102.369 88.1543C102.322 88.2737 102.207 88.3529 102.078 88.3529H69.2375C69.1347 88.3529 69.0375 88.3015 68.9792 88.2168C68.9208 88.1321 68.9083 88.0237 68.9458 87.9265C72.0292 80.0085 80.6222 73.3446 89.0458 72.0987C87.9736 71.6585 87.1153 70.9418 86.5528 69.9987C85.6236 68.4432 85.5681 66.4168 86.3945 64.2932C88.1292 59.8376 93.3042 56.2126 97.9292 56.2126C100.556 56.2126 102.549 57.3543 103.426 59.3099L106.3 51.8418H78.5695L62.6514 92.7237Z" fill="#D4FCC2"/>
<path d="M58.3444 59.6738C58.3041 59.6738 58.2638 59.6655 58.225 59.6502C55.8916 58.6905 54.6486 56.4057 55.0597 53.8307C55.6027 50.4307 58.9083 47.6641 62.4291 47.6641C62.5527 47.6641 62.6611 47.6668 62.7569 47.6724C64.8555 47.7738 66.6166 48.8807 67.4666 50.6349C67.6264 50.9627 67.7541 51.3168 67.843 51.6863C67.95 52.1349 68 52.5988 67.9916 53.0641C67.9861 53.6641 67.4375 54.1918 66.8166 54.1918C66.55 54.1918 66.3069 54.0946 66.1319 53.9168C65.9597 53.7432 65.8666 53.5071 65.8694 53.2516C65.8736 53.0057 65.8527 52.7641 65.8111 52.5321C65.7513 52.2057 65.6444 51.8905 65.493 51.5946C64.8902 50.4196 63.6541 49.7168 62.1861 49.7168C59.7819 49.7238 57.525 51.6141 57.1555 53.9293C56.9013 55.5238 57.6361 56.9877 59.025 57.6585C59.1708 57.7293 59.2389 57.9002 59.1805 58.0516L58.6333 59.4738C58.6027 59.553 58.543 59.6155 58.4652 59.6488C58.4277 59.6655 58.3861 59.6738 58.3444 59.6738Z" fill="#58F74A"/>
<path d="M62.4292 47.9766C62.5333 47.9766 62.6375 47.978 62.7389 47.9849C64.7875 48.0835 66.4125 49.1752 67.1861 50.7724C67.3375 51.0835 67.4555 51.4141 67.5403 51.7613C67.6389 52.1752 67.6875 52.6085 67.6805 53.0599C67.6764 53.4918 67.2722 53.8807 66.818 53.8807C66.4444 53.8807 66.1805 53.6127 66.1833 53.2557C66.1875 52.9877 66.1653 52.728 66.1208 52.478C66.0542 52.1141 65.9361 51.771 65.7736 51.4543C65.1417 50.221 63.8194 49.4057 62.1889 49.4057C59.6347 49.4141 57.243 51.4168 56.8486 53.8807C56.5625 55.6766 57.418 57.2293 58.8917 57.9405L58.3444 59.3627C56.2264 58.4918 54.9722 56.3655 55.368 53.8807C55.8875 50.6238 59.0528 47.9766 62.4292 47.9766ZM62.4292 47.3516C60.65 47.3516 58.8736 48.0182 57.4264 49.228C55.9764 50.4405 55.0264 52.0571 54.75 53.7807C54.5361 55.1224 54.7486 56.4182 55.3667 57.5293C55.9722 58.6182 56.9194 59.4516 58.1055 59.9391C58.1819 59.971 58.2625 59.9863 58.343 59.9863C58.4278 59.9863 58.5111 59.9696 58.5903 59.9349C58.7444 59.8682 58.8653 59.7418 58.9264 59.5849L59.4736 58.1627C59.5903 57.8585 59.4555 57.5168 59.1625 57.3752C57.8805 56.7571 57.2305 55.4543 57.4653 53.9766C57.8125 51.8071 59.9319 50.0349 62.1903 50.028C63.5361 50.028 64.668 50.6668 65.2167 51.7363C65.3528 52.0043 65.45 52.2918 65.5042 52.5877C65.543 52.7988 65.5597 53.0196 65.5569 53.2432C65.5528 53.5849 65.6778 53.9002 65.9097 54.1335C66.1444 54.371 66.4667 54.5016 66.8167 54.5016C67.6153 54.5016 68.2972 53.8418 68.3042 53.0613C68.3125 52.5752 68.2597 52.0863 68.1472 51.6127C68.0514 51.2182 67.9167 50.8432 67.7458 50.4946C66.8458 48.6377 64.9833 47.4641 62.7667 47.3571C62.6722 47.3543 62.5597 47.3516 62.4292 47.3516Z" fill="#D4FCC2"/>
<path d="M48.1347 86.0898C48.0945 86.0898 48.0528 86.0815 48.0139 86.0662C45.6986 85.0996 44.4667 82.819 44.875 80.2579C45.4167 76.8565 48.725 74.0898 52.2472 74.0898C52.3458 74.0898 52.4417 74.0926 52.5375 74.0968C54.6417 74.1898 56.4097 75.2871 57.2695 77.0301C57.4333 77.3635 57.5639 77.7176 57.6542 78.0843C57.7653 78.5357 57.8195 79.0079 57.8125 79.4885C57.8042 80.0912 57.2542 80.6204 56.6361 80.6204C56.3695 80.6204 56.125 80.5218 55.9486 80.344C55.7764 80.1704 55.6847 79.9329 55.6875 79.6787C55.6917 79.4204 55.6695 79.1648 55.6208 78.919C55.557 78.5912 55.4472 78.2801 55.2959 77.9912C54.6875 76.8357 53.4639 76.1454 52.0208 76.1454L51.9889 76.1468C49.5875 76.1676 47.3417 78.0579 46.975 80.3579C46.7222 81.9412 47.4472 83.3996 48.8222 84.0759C48.9681 84.1468 49.0347 84.3176 48.9764 84.469L48.4278 85.8926C48.3972 85.9718 48.3361 86.0343 48.2583 86.0676C48.2181 86.0815 48.1764 86.0898 48.1347 86.0898Z" fill="#58F74A"/>
<path d="M52.2486 74.4023C52.3431 74.4023 52.4347 74.4051 52.5278 74.4093C54.5792 74.4996 56.207 75.5801 56.9903 77.169C57.1445 77.4815 57.2653 77.8121 57.3514 78.1593C57.4556 78.5801 57.507 79.0232 57.5 79.4829C57.4945 79.9162 57.0889 80.3065 56.6361 80.3065C56.2625 80.3065 55.9958 80.0385 56.0014 79.6815C56.0056 79.3968 55.9806 79.1218 55.9292 78.8565C55.8583 78.4954 55.7375 78.1551 55.5736 77.8426C54.9361 76.6301 53.6375 75.8301 52.0222 75.8301L51.9792 75.8315C49.4361 75.8537 47.0597 77.851 46.6681 80.3065C46.3834 82.0912 47.2278 83.6371 48.6861 84.3537L48.525 84.7718L48.1375 85.776C46.0361 84.8982 44.7931 82.7773 45.1875 80.3051C45.7042 77.0496 48.8708 74.4023 52.2486 74.4023ZM52.2486 73.7773C48.5792 73.7773 45.1334 76.6621 44.5681 80.2079C44.3556 81.5426 44.5653 82.8343 45.1778 83.9412C45.7778 85.0273 46.7167 85.8607 47.8945 86.3523C47.9708 86.3843 48.0542 86.401 48.1347 86.401C48.2181 86.401 48.3014 86.3843 48.3806 86.3509C48.5361 86.2843 48.657 86.1579 48.7181 86.001L49.1056 84.9968L49.2667 84.5773C49.3833 84.276 49.25 83.9343 48.9597 83.7912C47.6917 83.1676 47.0486 81.8704 47.2833 80.4037C47.6278 78.2468 49.7361 76.476 51.9833 76.4565C51.9889 76.4565 51.9958 76.4565 52.0014 76.4565L52.0334 76.4551C53.3528 76.4593 54.4695 77.0857 55.0208 78.1343C55.1583 78.3968 55.2583 78.6801 55.3167 78.9773C55.3611 79.2023 55.382 79.4357 55.3778 79.6732C55.3722 80.0121 55.4972 80.3273 55.7278 80.5621C55.9625 80.801 56.2861 80.9315 56.6375 80.9315C57.4347 80.9315 58.1167 80.2718 58.1264 79.4912C58.1334 78.9857 58.0778 78.4857 57.9597 78.0093C57.8639 77.6218 57.7278 77.2468 57.5528 76.8926C56.6403 75.0454 54.7736 73.8829 52.557 73.7857C52.4528 73.7801 52.3528 73.7773 52.2486 73.7773Z" fill="#D4FCC2"/>
<path d="M43.0319 99.3005C42.9903 99.3005 42.95 99.2922 42.9111 99.2755C40.4694 98.2464 39.2472 95.738 39.8708 93.0352C40.6125 89.8213 43.8167 87.3047 47.1667 87.3047C47.2403 87.3047 47.3139 87.3061 47.3875 87.3088L47.4333 87.3102C49.5292 87.3977 51.2986 88.4852 52.1667 90.2158C52.3347 90.5519 52.4667 90.9089 52.5597 91.2769C52.675 91.7339 52.7292 92.2144 52.7222 92.7019C52.7111 93.3047 52.1625 93.8325 51.5458 93.8325C51.2792 93.8325 51.0347 93.7338 50.8583 93.5561C50.6861 93.3825 50.5944 93.1464 50.5972 92.8922C50.6014 92.613 50.575 92.338 50.5194 92.0755C50.4514 91.7533 50.3375 91.4464 50.1833 91.163C49.5694 90.0325 48.3528 89.3589 46.9292 89.3589C46.925 89.3589 46.8805 89.3602 46.8736 89.3602C44.4875 89.388 42.2486 91.2755 41.8833 93.57C41.6278 95.1714 42.3319 96.595 43.7194 97.2825C43.8639 97.3547 43.9305 97.5241 43.8722 97.6741L43.3236 99.0991C43.293 99.1783 43.2319 99.2408 43.1542 99.2741C43.1153 99.2922 43.0736 99.3005 43.0319 99.3005Z" fill="#58F74A"/>
<path d="M47.1653 87.6172C47.2347 87.6172 47.3056 87.6186 47.3764 87.6213L47.4208 87.6227C49.4667 87.7089 51.0944 88.7783 51.8861 90.3561C52.0431 90.67 52.1681 91.0033 52.2556 91.3533C52.3625 91.7797 52.4153 92.2297 52.4083 92.6977C52.4014 93.1311 51.9972 93.52 51.5444 93.52C51.1708 93.52 50.9042 93.2519 50.9097 92.8963C50.9139 92.5894 50.8847 92.2936 50.825 92.0102C50.75 91.6547 50.625 91.3213 50.4583 91.013C49.8125 89.8255 48.5264 89.045 46.9306 89.045C46.9125 89.045 46.8903 89.045 46.8722 89.0464C44.3347 89.0755 41.9667 91.0686 41.5764 93.5186C41.2917 95.3005 42.1306 96.8408 43.5819 97.5602L43.5639 97.6075L43.0333 98.9852C40.8236 98.0533 39.5681 95.7436 40.1764 93.1033C40.8875 90.0214 43.9819 87.6172 47.1653 87.6172ZM47.1653 86.9922C43.6764 86.9922 40.3389 89.6158 39.5653 92.9644C38.9056 95.82 40.2014 98.4727 42.7875 99.563C42.8653 99.5963 42.9472 99.6116 43.0306 99.6116C43.1139 99.6116 43.1972 99.595 43.275 99.5616C43.4306 99.495 43.5528 99.3686 43.6139 99.2116L44.1444 97.8339L44.1625 97.7866C44.2792 97.4852 44.1458 97.145 43.8569 97.0019C42.5958 96.3769 41.9569 95.0797 42.1903 93.6186C42.5333 91.4686 44.6347 89.6977 46.8764 89.6727C46.8889 89.6727 46.9014 89.6727 46.9139 89.6714H46.9278C48.2347 89.6714 49.3472 90.2852 49.9069 91.313C50.0472 91.57 50.15 91.8491 50.2111 92.1408C50.2625 92.3811 50.2861 92.6325 50.2819 92.888C50.2778 93.2269 50.4014 93.5422 50.6319 93.7755C50.8667 94.0144 51.1903 94.145 51.5417 94.145C52.3347 94.145 53.0167 93.4866 53.0306 92.7088C53.0375 92.1922 52.9806 91.6866 52.8583 91.2019C52.7597 90.8102 52.6194 90.4325 52.4417 90.0769C51.5222 88.2422 49.6542 87.0922 47.4444 86.9991L47.3944 86.9977C47.3208 86.9936 47.2431 86.9922 47.1653 86.9922Z" fill="#D4FCC2"/>
<path d="M61.0722 69.3044C60.2403 69.3044 59.5639 68.9794 59.1708 68.3891C58.7722 67.7975 58.7222 67.0003 59.0333 66.203C59.3014 65.5128 59.8167 64.8655 60.4806 64.3794C60.5347 64.3405 60.5986 64.3197 60.6653 64.3197C60.6889 64.3197 60.7125 64.3225 60.7361 64.328C60.825 64.3489 60.9 64.4072 60.9417 64.4864C61.1222 64.828 61.2514 65.1975 61.3278 65.5836C61.3486 65.6919 61.3125 65.8016 61.2306 65.8753C60.9667 66.1128 60.7708 66.385 60.6639 66.66C60.55 66.9503 60.55 67.2017 60.6639 67.3711C60.7667 67.5225 60.9736 67.6072 61.2458 67.6072C62.0125 67.6072 62.9417 66.9517 63.2333 66.203C63.3458 65.9128 63.3458 65.66 63.2333 65.4933C63.1306 65.3391 62.9236 65.2544 62.6528 65.2544C62.5986 65.2544 62.5417 65.2572 62.4847 65.2641C62.4722 65.2655 62.4597 65.2669 62.4486 65.2669C62.3069 65.2669 62.1792 65.1697 62.1458 65.028C62.0667 64.7058 61.9542 64.3933 61.8097 64.0989C61.7681 64.0142 61.7667 63.9141 61.8069 63.828C61.8472 63.7419 61.925 63.6794 62.0167 63.6572C62.2889 63.5919 62.5611 63.5586 62.825 63.5586C63.6556 63.5586 64.3306 63.8836 64.7264 64.4725C65.1236 65.0628 65.175 65.86 64.8653 66.6586C64.2819 68.1433 62.6194 69.3044 61.0722 69.3044Z" fill="#58F74A"/>
<path d="M62.8194 63.873C63.5417 63.873 64.125 64.148 64.4611 64.6494C64.8014 65.155 64.8403 65.848 64.5681 66.548C64.0347 67.9189 62.4986 68.9911 61.0722 68.9911C60.35 68.9911 59.7653 68.7161 59.4306 68.2147C59.0903 67.7092 59.05 67.0161 59.3236 66.3161C59.5806 65.6578 60.0681 65.0675 60.6639 64.6314C60.8278 64.9439 60.9486 65.2828 61.0194 65.6439C60.7319 65.9036 60.5 66.2161 60.3708 66.548C60.2195 66.9369 60.2306 67.2897 60.4014 67.5453C60.5653 67.7869 60.8625 67.9203 61.2431 67.9203C62.1389 67.9203 63.182 67.1855 63.5208 66.3175C63.6708 65.9286 63.6611 65.5758 63.4889 65.3203C63.3264 65.0772 63.0278 64.9439 62.65 64.9439C62.5819 64.9439 62.5139 64.948 62.4458 64.9564C62.3611 64.6078 62.2403 64.2758 62.0861 63.9633C62.3292 63.905 62.575 63.873 62.8194 63.873ZM62.8194 63.248C62.5319 63.248 62.2347 63.2842 61.9389 63.355C61.7542 63.3994 61.6 63.5258 61.5195 63.6967C61.4389 63.8675 61.4403 64.0675 61.5236 64.2383C61.6583 64.5119 61.7639 64.8036 61.8375 65.1036C61.907 65.3855 62.1597 65.58 62.4445 65.58C62.4695 65.58 62.4931 65.5786 62.5181 65.5758C62.5625 65.5703 62.6069 65.5675 62.65 65.5675C62.8069 65.5675 62.9292 65.605 62.9708 65.6661C63.0097 65.7244 63.025 65.8689 62.9389 66.0897C62.6945 66.7189 61.8861 67.2939 61.2444 67.2939C61.0861 67.2939 60.9625 67.255 60.9208 67.1939C60.882 67.1355 60.8694 66.9925 60.9542 66.7744C61.0431 66.5467 61.2153 66.3092 61.4403 66.1064C61.6028 65.9592 61.6764 65.7369 61.6347 65.5217C61.5528 65.1064 61.4125 64.7078 61.2195 64.3397C61.1347 64.1786 60.9847 64.0633 60.807 64.0217C60.7597 64.0105 60.7125 64.005 60.6653 64.005C60.5333 64.005 60.4042 64.0467 60.2972 64.1258C59.5847 64.6453 59.032 65.3425 58.7417 66.0883C58.3931 66.9814 58.4556 67.8842 58.9125 68.5633C59.3653 69.2411 60.1333 69.6147 61.0736 69.6147C62.7681 69.6147 64.5222 68.3925 65.1528 66.773C65.5 65.8772 65.4375 64.9758 64.9819 64.298C64.525 63.623 63.7569 63.248 62.8194 63.248Z" fill="#D4FCC2"/>
<path d="M53.2389 72.8836C53.1986 72.8836 53.1569 72.8753 53.1194 72.86C50.7958 71.8961 49.5597 69.6128 49.9708 67.0447C50.5125 63.6461 53.8181 60.8809 57.3403 60.8809C57.4403 60.8809 57.5431 60.8809 57.6458 60.8864C57.6472 60.8864 57.6486 60.8864 57.65 60.8864C59.7444 60.9836 61.5069 62.0822 62.3653 63.8253C62.3694 63.8323 62.3722 63.8392 62.375 63.8475C62.5319 64.1698 62.6583 64.517 62.7486 64.8809C62.8583 65.3253 62.9097 65.7947 62.9042 66.2767C62.8958 66.8781 62.3458 67.4059 61.7264 67.4059C61.4597 67.4059 61.2167 67.3073 61.0403 67.1295C60.8694 66.9559 60.7778 66.7198 60.7819 66.4656C60.7861 66.2086 60.7625 65.9531 60.7125 65.7072C60.6486 65.3809 60.5389 65.0684 60.3875 64.7781C60.0958 64.2225 59.6486 63.7614 59.0958 63.4434C58.5444 63.1239 57.9167 62.9531 57.2292 62.935C57.1903 62.9336 57.1583 62.9336 57.1236 62.9336C57.1195 62.9336 57.0833 62.9336 57.0833 62.9336C54.6833 62.96 52.4319 64.8475 52.0667 67.1434C51.8139 68.7323 52.5431 70.1947 53.925 70.8684C54.0708 70.9392 54.1389 71.11 54.0792 71.2614L53.5292 72.6836C53.4986 72.7628 53.4375 72.8253 53.3611 72.8586C53.3222 72.8753 53.2806 72.8836 53.2389 72.8836Z" fill="#58F74A"/>
<path d="M57.3389 61.1914C57.4375 61.1914 57.5361 61.1914 57.632 61.197H57.6334C59.6778 61.2914 61.3014 62.3747 62.0834 63.9622V63.9636C62.2375 64.2747 62.357 64.6081 62.4431 64.9539C62.5459 65.372 62.5945 65.8122 62.5889 66.2692C62.5834 66.7025 62.1778 67.09 61.7236 67.09C61.3514 67.09 61.0861 66.822 61.0917 66.4678C61.0959 66.1845 61.0695 65.9081 61.0167 65.6428C60.9459 65.2817 60.825 64.9442 60.6625 64.6303C60.3431 64.0233 59.8584 63.5192 59.25 63.1692C58.675 62.8358 57.9917 62.64 57.2347 62.6192C57.1931 62.6178 57.1514 62.6178 57.1084 62.6178H57.0834C54.5153 62.6456 52.1472 64.64 51.757 67.0914C51.4709 68.8831 52.3209 70.4317 53.7875 71.147L53.2375 72.5692C51.1306 71.6942 49.8806 69.572 50.2778 67.0914C50.7959 63.8386 53.9611 61.1914 57.3389 61.1914ZM57.3389 60.5664C55.5597 60.5664 53.782 61.2331 52.3347 62.4428C50.8847 63.6553 49.9347 65.272 49.6597 66.9942C49.4459 68.3331 49.657 69.6275 50.2722 70.7359C50.8736 71.8234 51.8167 72.6567 52.9986 73.147C53.075 73.1789 53.157 73.1942 53.2375 73.1942C53.3209 73.1942 53.4056 73.1775 53.4834 73.1442C53.6375 73.0775 53.7597 72.9525 53.8209 72.7942L54.3709 71.372C54.4875 71.0692 54.3542 70.7275 54.0611 70.5845C52.7861 69.9636 52.1389 68.6622 52.3736 67.1886C52.7167 65.0372 54.832 63.2664 57.0889 63.2414H57.1097C57.1181 63.2414 57.125 63.2414 57.1334 63.2414C57.1584 63.2414 57.1834 63.2414 57.207 63.2428C57.2111 63.2428 57.2153 63.2428 57.2195 63.2428C57.8542 63.2595 58.432 63.4164 58.9375 63.7081C59.4403 63.997 59.8445 64.4164 60.1097 64.9192C60.2472 65.1817 60.3459 65.465 60.4042 65.7608C60.45 65.9872 60.4709 66.2206 60.4667 66.4567C60.4611 66.7928 60.5847 67.1081 60.8153 67.3428C61.05 67.5817 61.3722 67.7136 61.7236 67.7136C62.5209 67.7136 63.2028 67.0553 63.2139 66.2761C63.2209 65.7678 63.1653 65.272 63.05 64.8025C62.9542 64.4178 62.8222 64.0525 62.657 63.7136C62.6528 63.7025 62.6472 63.6928 62.6431 63.6831C61.7334 61.8359 59.8709 60.672 57.6611 60.5692C57.6597 60.5692 57.6584 60.5692 57.657 60.5692C57.5486 60.5664 57.4417 60.5664 57.3389 60.5664Z" fill="#D4FCC2"/>
<path d="M118.349 49.2793L118.622 50.9918C118.788 52.0182 119.492 52.8223 120.506 53.139L122.199 53.6668L120.338 54.1946C119.224 54.5112 118.263 55.3154 117.769 56.3418L116.949 58.0543L116.674 56.3418C116.508 55.3154 115.804 54.5112 114.79 54.1946L113.099 53.6668L114.958 53.139C116.072 52.8223 117.033 52.0182 117.526 50.9918L118.349 49.2793Z" fill="#002928"/>
<path d="M40.6584 36.5078L40.8681 37.8203C40.9945 38.6078 41.5347 39.2245 42.3125 39.4661L43.6097 39.8703L42.1834 40.2773C41.3292 40.5189 40.5917 41.1356 40.2139 41.9217L39.5848 43.2356L39.375 41.9217C39.2486 41.1342 38.7084 40.5189 37.9306 40.2773L36.6334 39.8717L38.0597 39.4675C38.9139 39.2259 39.6514 38.6078 40.0292 37.8217L40.6584 36.5078Z" fill="#002928"/>
<path d="M96.007 82.1934L96.1236 82.9253C96.1945 83.3628 96.4958 83.7072 96.9292 83.842L97.6514 84.067L96.857 84.292C96.3806 84.4281 95.9695 84.7711 95.7583 85.2086L95.407 85.9406L95.2903 85.2086C95.2195 84.7711 94.9195 84.4267 94.4861 84.292L93.7625 84.067L94.5583 83.842C95.0347 83.7059 95.4444 83.3628 95.6556 82.9253L96.007 82.1934Z" fill="#9AFCB3"/>
<path d="M31.8792 94.3652L31.9958 95.0972C32.0667 95.5361 32.3681 95.8791 32.8014 96.0138L33.5236 96.2388L32.7292 96.4638C32.2528 96.6 31.8417 96.943 31.6306 97.3819L31.2806 98.1138L31.1639 97.3819C31.0945 96.943 30.7931 96.6 30.3597 96.4638L29.6375 96.2388L30.432 96.0138C30.9083 95.8791 31.3195 95.5361 31.5292 95.0972L31.8792 94.3652Z" fill="#002928"/>
</svg>
