<svg width="86" height="61" viewBox="0 0 86 61" fill="none" xmlns="http://www.w3.org/2000/svg">
<path d="M76.7842 49.5889L78.6984 52.3525L69.9418 53.7337L68.0276 50.9701L76.7842 49.5889Z" fill="#58F74A"/>
<path d="M69.9418 53.9723C69.8517 53.9723 69.7667 53.931 69.7185 53.8598L67.8043 51.0962C67.7574 51.0285 67.751 50.9447 67.7866 50.8723C67.8221 50.8 67.8956 50.7483 67.9819 50.7346L76.7385 49.3533C76.845 49.3361 76.9503 49.3797 77.0074 49.4613L78.9216 52.2249C78.9685 52.2926 78.9749 52.3764 78.9394 52.4487C78.9038 52.5211 78.8303 52.5727 78.744 52.5865L69.9874 53.9677C69.9722 53.9712 69.957 53.9723 69.9418 53.9723ZM68.4601 51.1444L70.0712 53.4706L78.2671 52.1778L76.656 49.8516L68.4601 51.1444Z" fill="#E8FFE5"/>
<path d="M77.7876 20.77L77.0493 26.257C75.9888 34.1414 75.8987 41.9809 76.7854 49.5897L68.0276 50.9698L71.837 39.1794L77.7876 20.77Z" fill="#8AFA74"/>
<path d="M68.0276 51.2084C67.9527 51.2084 67.8817 51.1797 67.831 51.1292C67.7701 51.0672 67.7485 50.9822 67.7739 50.903L77.5339 20.7032C77.5719 20.5838 77.7064 20.5115 77.8408 20.5368C77.9753 20.562 78.0666 20.6757 78.0501 20.7997L77.3119 26.2867C76.2539 34.1492 76.1651 41.9807 77.048 49.5654C77.0632 49.6905 76.9681 49.8042 76.8311 49.826L68.0745 51.2072C68.058 51.2072 68.0428 51.2084 68.0276 51.2084ZM77.1355 23.6368L68.3993 50.6688L76.4962 49.392C75.6362 41.8406 75.7338 34.0493 76.7867 26.2281L77.1355 23.6368Z" fill="#E8FFE5"/>
<path d="M79.7018 23.5336L77.7876 20.77L77.0493 26.257C75.9888 34.1414 75.8988 41.9809 76.7854 49.5897L78.6996 52.3533C77.8142 44.7445 77.903 36.9061 78.9635 29.0206L79.7018 23.5336Z" fill="#8AFA74"/>
<path d="M78.6984 52.5908C78.6096 52.5908 78.5246 52.5494 78.4751 52.4782L76.5609 49.7146C76.5394 49.6836 76.5267 49.6492 76.5216 49.6125C75.6349 41.9922 75.7237 34.1239 76.7867 26.2258L77.525 20.7388C77.5389 20.6389 77.6201 20.5563 77.7292 20.5345C77.8383 20.5127 77.9512 20.5551 78.0096 20.6412L79.9238 23.4048C79.9555 23.4508 79.9694 23.5059 79.9618 23.561L79.2235 29.048C78.1656 36.9105 78.0768 44.742 78.9597 52.3267C78.9724 52.4369 78.9001 52.5414 78.7834 52.577C78.7567 52.5873 78.7275 52.5908 78.6984 52.5908ZM77.0404 49.5091L78.3229 51.3622C77.558 44.06 77.6848 36.5385 78.6996 28.9917L79.4265 23.5885L77.9576 21.4679L77.3093 26.2855C76.2552 34.1285 76.1651 41.9417 77.0404 49.5091Z" fill="#E8FFE5"/>
<path d="M66.8313 54.6724L68.7455 57.436H66.5003L64.5861 54.6724H66.8313Z" fill="#58F74A"/>
<path d="M68.7456 57.6748H66.5016C66.4102 57.6748 66.3265 57.6323 66.2783 57.5623L64.3641 54.7987C64.3134 54.7252 64.3108 54.6322 64.3565 54.5564C64.4034 54.4807 64.4909 54.4336 64.5874 54.4336H66.8314C66.9227 54.4336 67.0064 54.4761 67.0546 54.5461L68.9688 57.3097C69.0196 57.3832 69.0221 57.4762 68.9764 57.552C68.9295 57.6277 68.8407 57.6748 68.7456 57.6748ZM66.6462 57.1972H68.2686L66.6855 54.9112H65.0643L66.6462 57.1972Z" fill="#E8FFE5"/>
<path d="M78.3 19.1841L77.7876 20.7697L71.8369 39.1791L68.0276 50.9694L66.8314 54.6722L68.7456 57.4358L69.9418 53.733L73.7511 41.9427L79.7018 23.5333L80.2142 21.9477L78.3 19.1841Z" fill="#9AFCB3"/>
<path d="M68.7456 57.6747C68.6555 57.6747 68.5705 57.6334 68.5223 57.5622L66.6081 54.7986C66.5675 54.7412 66.5574 54.67 66.5789 54.6046L78.0476 19.1165C78.0768 19.0258 78.1618 18.9603 78.2645 18.9465C78.3673 18.9339 78.4687 18.9764 78.5246 19.0568L80.4388 21.8203C80.4793 21.8778 80.4895 21.9489 80.4679 22.0144L68.998 57.5025C68.9688 57.5932 68.8838 57.6586 68.7811 57.6724C68.7696 57.6736 68.757 57.6747 68.7456 57.6747ZM67.118 54.6356L68.6568 56.8584L79.9275 21.9834L78.3888 19.7606L67.118 54.6356Z" fill="#E8FFE5"/>
<path d="M78.3 19.1846L77.7875 20.7702L71.8369 39.1796L68.0276 50.9699L66.8313 54.6727H64.5861L68.828 41.5516L76.056 19.1846H78.3Z" fill="#E4DBDB"/>
<path d="M66.8314 54.9115H64.5873C64.5036 54.9115 64.4263 54.8759 64.3768 54.8162C64.3273 54.7565 64.3108 54.6785 64.3349 54.6061L68.5756 41.4851L75.8036 19.118C75.8366 19.0158 75.9393 18.9458 76.0573 18.9458H78.3013C78.385 18.9458 78.4624 18.9814 78.5119 19.0411C78.5613 19.1008 78.5778 19.1789 78.5537 19.2512L67.0851 54.7393C67.0521 54.8415 66.9481 54.9115 66.8314 54.9115ZM64.9387 54.4339H66.6335L77.9487 19.4234H76.2539L69.0804 41.6183L64.9387 54.4339Z" fill="#E8FFE5"/>
<path d="M37.7746 4.0494C37.7759 4.02644 37.7759 4.00347 37.7759 3.98051C37.7759 3.96673 37.7746 3.9541 37.7734 3.94147C37.7721 3.92081 37.7708 3.90129 37.7683 3.88177C37.767 3.86799 37.7645 3.85421 37.7619 3.84043C37.7607 3.8278 37.7594 3.81518 37.7569 3.80255C37.7556 3.79795 37.7543 3.79451 37.7543 3.79106C37.7454 3.74744 37.7353 3.70381 37.7213 3.66247C37.7201 3.66018 37.7201 3.65788 37.7201 3.65558C37.7175 3.64755 37.7137 3.64066 37.7112 3.63377C37.7023 3.60851 37.6922 3.58325 37.6808 3.55914C37.6782 3.55455 37.6769 3.5488 37.6744 3.54306C37.6706 3.53618 37.6668 3.52929 37.663 3.5224C37.6541 3.50403 37.644 3.48681 37.6338 3.46958C37.63 3.4627 37.6262 3.4558 37.6224 3.44892C37.6148 3.43743 37.6072 3.42595 37.5996 3.41447L35.6854 0.650879C35.6981 0.668101 35.7082 0.687621 35.7196 0.705991C35.7298 0.723214 35.7399 0.741583 35.7488 0.758805C35.7551 0.770287 35.7615 0.782917 35.7666 0.795547C35.778 0.819658 35.7881 0.844916 35.797 0.870176C35.8008 0.879361 35.8046 0.888546 35.8072 0.898879C35.8211 0.940213 35.8325 0.982694 35.8401 1.02747C35.8439 1.04355 35.8465 1.05962 35.849 1.07684C35.8515 1.09062 35.8528 1.1044 35.8554 1.11818C35.8579 1.13769 35.8592 1.15836 35.8604 1.17788C35.8617 1.19051 35.8617 1.20429 35.863 1.21692C35.863 1.23988 35.863 1.26284 35.8617 1.2858C35.8617 1.29729 35.8617 1.30762 35.8604 1.3191C35.8579 1.35355 35.8541 1.38914 35.849 1.42473L35.6042 3.05166L37.5184 5.81525L37.7632 4.18832C37.7683 4.15273 37.7721 4.11829 37.7746 4.0827C37.7746 4.07236 37.7746 4.06088 37.7746 4.0494Z" fill="#D4FCC2"/>
<path d="M37.5184 6.05402C37.4283 6.05402 37.3434 6.01269 37.2951 5.9415L35.381 3.17791C35.348 3.13084 35.3353 3.07457 35.3429 3.01832L35.5877 1.39139C35.5928 1.36154 35.5953 1.33283 35.5966 1.30413L35.5979 1.27658C35.5979 1.25821 35.5991 1.23983 35.5991 1.22146L35.5979 1.18932C35.5966 1.17324 35.5966 1.15717 35.5941 1.14109L35.5903 1.11813C35.5865 1.09517 35.5852 1.08254 35.5826 1.06876C35.575 1.03202 35.5662 0.998723 35.556 0.967723L35.5471 0.945908C35.5395 0.92639 35.5319 0.906871 35.523 0.888501C35.518 0.878168 35.5141 0.868982 35.5091 0.859797C35.5015 0.846019 35.4951 0.832241 35.4862 0.819611C35.4736 0.798945 35.4685 0.788613 35.4609 0.77828C35.3835 0.666909 35.4203 0.518799 35.5446 0.448762C35.6676 0.378724 35.8313 0.41202 35.9087 0.52339L37.8229 3.28698C37.833 3.30076 37.8419 3.31569 37.8508 3.32947C37.8558 3.3375 37.8609 3.34669 37.866 3.35587C37.8787 3.37654 37.8901 3.39835 37.9015 3.42017C37.9066 3.42706 37.9117 3.43624 37.9155 3.44543C37.918 3.45117 37.9243 3.46609 37.9269 3.47183C37.937 3.4948 37.9497 3.52465 37.9611 3.55565C37.9637 3.56254 37.9687 3.57173 37.9713 3.58091C37.9725 3.5855 37.9751 3.59124 37.9763 3.59698C37.9903 3.64061 38.003 3.68769 38.0131 3.73706C38.0157 3.74509 38.0169 3.75313 38.0182 3.76117C38.0207 3.7715 38.022 3.78298 38.0233 3.79561L37.7632 3.83695L38.0258 3.81284C38.0284 3.82661 38.0296 3.84039 38.0322 3.85532C38.0347 3.87828 38.036 3.90239 38.0372 3.9265C38.0385 3.94946 38.0398 3.9621 38.0398 3.97472C38.0398 3.99998 38.0398 4.02754 38.0385 4.0551V4.05624V4.06543C38.0385 4.07576 38.0385 4.08609 38.0372 4.09643C38.0347 4.13661 38.0309 4.17795 38.0245 4.22043L37.7797 5.84735C37.7645 5.94724 37.682 6.02761 37.5742 6.04828C37.5552 6.05287 37.5362 6.05402 37.5184 6.05402ZM35.8782 2.99765L37.3548 5.12976L37.5019 4.15613C37.507 4.12628 37.5095 4.09758 37.5108 4.06887L37.5121 4.04132C37.5133 4.02295 37.5133 4.00343 37.5133 3.98506L37.5121 3.95291C37.5108 3.93684 37.5108 3.92076 37.5083 3.90469L37.5007 3.85187C37.5007 3.85072 37.4994 3.84269 37.4968 3.83465C37.4892 3.79561 37.4804 3.76117 37.4702 3.73132C37.4702 3.73017 37.4689 3.72902 37.4689 3.72672C37.4664 3.72098 37.4639 3.71524 37.4613 3.7095C37.4537 3.68998 37.4461 3.67047 37.4372 3.6521C37.436 3.64865 37.4334 3.64406 37.4309 3.63832C37.4283 3.63258 37.4245 3.62569 37.4233 3.62454C37.4157 3.61076 37.408 3.59698 37.4004 3.58321C37.3979 3.57976 37.3916 3.56713 37.389 3.56369C37.3865 3.55909 37.3814 3.55106 37.3751 3.54302L36.0786 1.67039L35.8782 2.99765Z" fill="#E8FFE5"/>
<path d="M34.8672 0.239746C35.5078 0.239746 35.948 0.770191 35.8491 1.42464L35.6043 3.05156L34.4981 10.3997C34.3992 11.0553 33.8004 11.5846 33.1598 11.5846H31.0071C30.3665 11.5846 29.9264 11.0542 30.0253 10.3997L31.1315 3.05156L31.3763 1.42464C31.4752 0.769043 32.074 0.239746 32.7146 0.239746H34.8672Z" fill="#E8FFE5"/>
<path d="M33.1585 11.8235H31.0059C30.6469 11.8235 30.3196 11.6903 30.0862 11.448C29.8185 11.1713 29.7005 10.7775 29.7627 10.3676L31.1137 1.39253C31.2317 0.611794 31.9344 0.000976562 32.7133 0.000976562H34.866C35.2249 0.000976562 35.5522 0.134164 35.7856 0.376423C36.0533 0.653127 36.1713 1.04694 36.1091 1.45683L34.7581 10.4319C34.6414 11.2126 33.9387 11.8235 33.1585 11.8235ZM32.7145 0.478606C32.2021 0.478606 31.7188 0.917201 31.6376 1.45683L30.2866 10.4319C30.246 10.7052 30.317 10.9601 30.4845 11.1334C30.619 11.2723 30.7991 11.3458 31.0071 11.3458H33.1598C33.6723 11.3458 34.1556 10.9072 34.2368 10.3676L35.5877 1.39253C35.6283 1.11928 35.5573 0.864385 35.3899 0.691015C35.2554 0.552089 35.0753 0.478606 34.8672 0.478606H32.7145Z" fill="#E8FFE5"/>
<path d="M24.5452 19.1842H20.3325C20.0242 19.1842 19.7401 19.1234 19.4877 19.012C19.4154 18.9799 19.3469 18.9443 19.2796 18.9052C19.1464 18.826 19.0247 18.7319 18.9168 18.6239C18.8356 18.5436 18.7621 18.4552 18.6961 18.3599L20.6103 21.1235C20.9604 21.6286 21.5427 21.9478 22.2467 21.9478H26.4594L24.5452 19.1842Z" fill="#8AFA74"/>
<path d="M26.4595 22.1867H22.2467C21.4767 22.1867 20.7993 21.8457 20.3871 21.2498L18.4729 18.4862C18.3955 18.3749 18.4335 18.2268 18.5566 18.1567C18.6796 18.0867 18.8433 18.12 18.9207 18.2325L18.9219 18.2336C18.979 18.3152 19.0437 18.3921 19.1135 18.4621C19.2073 18.5551 19.3126 18.6366 19.4268 18.7044C19.4839 18.7388 19.5435 18.7698 19.6057 18.7962C19.8289 18.895 20.0737 18.9444 20.3351 18.9444H24.5478C24.6391 18.9444 24.7229 18.9868 24.7711 19.0569L26.6853 21.8205C26.736 21.8939 26.7385 21.9869 26.6929 22.0627C26.6472 22.1385 26.5559 22.1867 26.4595 22.1867ZM19.6856 19.3382L20.8336 20.9972C21.1469 21.4496 21.6619 21.7102 22.2454 21.7102H25.9812L24.3981 19.4243H20.3313C20.108 19.4231 19.8923 19.3944 19.6856 19.3382Z" fill="#E8FFE5"/>
<path d="M75.2733 4.04957C75.2746 4.02661 75.2746 4.00364 75.2746 3.98068C75.2746 3.9669 75.2733 3.95427 75.2721 3.9405C75.2708 3.92098 75.2695 3.90031 75.267 3.88079C75.2657 3.86701 75.2632 3.85324 75.2607 3.83946C75.2594 3.82683 75.2581 3.8142 75.2556 3.80272C75.2543 3.79812 75.253 3.79468 75.253 3.79009C75.2442 3.74646 75.234 3.70398 75.2201 3.66264C75.2188 3.66035 75.2188 3.65805 75.2188 3.65575C75.2163 3.64887 75.2124 3.64198 75.2099 3.63394C75.201 3.60868 75.1909 3.58342 75.1795 3.55931C75.1769 3.55472 75.1757 3.54897 75.1731 3.54323C75.1693 3.53635 75.1655 3.52946 75.1617 3.52257C75.1528 3.5042 75.1427 3.48698 75.1325 3.46861C75.1287 3.46172 75.1249 3.45483 75.1211 3.44794C75.1135 3.43646 75.1059 3.42497 75.0983 3.41349L73.1841 0.649902C73.1968 0.667125 73.2069 0.686641 73.2183 0.705011C73.2285 0.722233 73.2386 0.740604 73.2475 0.758974C73.2539 0.770456 73.2602 0.783086 73.2653 0.795716C73.2767 0.819827 73.2868 0.845087 73.2957 0.871494C73.2995 0.880679 73.3033 0.889863 73.3059 0.899049C73.3198 0.940382 73.3312 0.982863 73.3388 1.02764C73.3427 1.04371 73.3452 1.05979 73.3477 1.07701C73.3503 1.09079 73.3515 1.10457 73.3541 1.11835C73.3566 1.13786 73.3579 1.15853 73.3591 1.17805C73.3604 1.19183 73.3617 1.20446 73.3617 1.21823C73.3617 1.2412 73.3617 1.26416 73.3604 1.28712C73.3604 1.2986 73.3604 1.31008 73.3591 1.32157C73.3566 1.35601 73.3528 1.3916 73.3477 1.42605L73.1029 3.05298L75.0171 5.81657L75.2619 4.18964C75.267 4.15405 75.2708 4.1196 75.2733 4.08516C75.2733 4.07253 75.2733 4.06105 75.2733 4.04957Z" fill="#D4FCC2"/>
<path d="M75.0158 6.05433C74.9258 6.05433 74.8408 6.01299 74.7926 5.94181L72.8784 3.17822C72.8454 3.13114 72.8327 3.07488 72.8403 3.01862L73.0852 1.3917C73.089 1.36299 73.0928 1.33314 73.094 1.30559V1.27803C73.0953 1.25851 73.0953 1.24014 73.0953 1.22177L73.0928 1.18962C73.0915 1.17355 73.0915 1.15747 73.089 1.14255L73.0864 1.11959C73.0826 1.09662 73.0814 1.08285 73.0788 1.07022C73.0725 1.03577 73.0636 1.00133 73.0522 0.969179C73.0522 0.968031 73.0446 0.950807 73.0446 0.949659C73.037 0.928992 73.0294 0.909475 73.0205 0.889956C73.0167 0.880771 73.0116 0.872733 73.0078 0.863548C73.0002 0.848622 72.9926 0.834845 72.9849 0.821067C72.9748 0.802696 72.9672 0.791213 72.9596 0.779732C72.8822 0.668361 72.9203 0.520252 73.0433 0.451363C73.1663 0.381326 73.3287 0.415771 73.4074 0.527141L75.3216 3.29074C75.3317 3.30566 75.3406 3.31944 75.3507 3.33436C75.3545 3.34125 75.3609 3.35044 75.366 3.36077C75.3774 3.38029 75.3901 3.4021 75.4015 3.42507C75.4065 3.4331 75.4116 3.44229 75.4154 3.45148C75.418 3.45722 75.4243 3.47099 75.4256 3.47673C75.437 3.50085 75.4497 3.53185 75.4611 3.56285C75.4636 3.56859 75.4674 3.57777 75.4712 3.58696C75.4725 3.59155 75.4751 3.59844 75.4763 3.60533C75.4903 3.64551 75.5017 3.69258 75.5131 3.74425C75.5144 3.74999 75.5156 3.75573 75.5169 3.76147C75.5194 3.77755 75.522 3.79018 75.5233 3.80166C75.5271 3.82692 75.5296 3.84299 75.5309 3.85907C75.5334 3.88318 75.5347 3.90729 75.5359 3.9314C75.5372 3.95092 75.5385 3.9647 75.5385 3.97962C75.5385 4.00488 75.5385 4.03244 75.5372 4.05885V4.06688C75.5372 4.07721 75.5372 4.0887 75.5359 4.09903C75.5334 4.13921 75.5296 4.18055 75.5233 4.22188L75.2772 5.84766C75.2619 5.94755 75.1795 6.02792 75.0717 6.04859C75.0526 6.05318 75.0349 6.05433 75.0158 6.05433ZM73.3769 2.99796L74.8535 5.13007L75.0006 4.15644C75.0044 4.12773 75.0082 4.09788 75.0095 4.07033V4.04277V4.04162C75.0108 4.02325 75.0108 4.00488 75.0108 3.98651L75.0095 3.96584C75.0095 3.9647 75.0082 3.95436 75.0082 3.95436C75.007 3.93829 75.007 3.92222 75.0044 3.90729L74.9968 3.85448C74.9968 3.85333 74.9956 3.84529 74.993 3.83725C74.9854 3.79821 74.9765 3.76492 74.9664 3.73392C74.9664 3.73277 74.9651 3.73047 74.9651 3.72933C74.9626 3.72358 74.96 3.71784 74.9588 3.7121C74.9512 3.69144 74.9435 3.67192 74.9347 3.65355C74.9334 3.65125 74.9309 3.64551 74.9296 3.63977C74.9258 3.63403 74.922 3.62599 74.9207 3.6237C74.9144 3.61107 74.9068 3.59729 74.8991 3.58351C74.8966 3.58007 74.8903 3.56744 74.889 3.56399C74.8852 3.55825 74.8801 3.55022 74.8738 3.54103L73.5773 1.6684L73.3769 2.99796Z" fill="#E8FFE5"/>
<path d="M72.3647 0.239746C73.0053 0.239746 73.4467 0.770191 73.3478 1.42464L73.1029 3.05156L71.9968 10.3997C71.8979 11.0553 71.2979 11.5846 70.6573 11.5846H68.5046C67.864 11.5846 67.4238 11.0542 67.5227 10.3997L68.6289 3.05156L68.8737 1.42464C68.9727 0.769043 69.5727 0.239746 70.212 0.239746H72.3647Z" fill="#E8FFE5"/>
<path d="M70.656 11.8236H68.5033C68.1443 11.8236 67.817 11.6904 67.5836 11.447C67.316 11.1703 67.198 10.7765 67.2601 10.3666L68.6111 1.39156C68.7266 0.624592 69.4445 0 70.2107 0H72.3634C72.7224 0 73.0497 0.133185 73.2843 0.376592C73.552 0.653296 73.67 1.04711 73.6078 1.457L72.2568 10.4321C72.1401 11.2128 71.4361 11.8236 70.656 11.8236ZM70.212 0.478776C69.7084 0.478776 69.2149 0.926556 69.135 1.457L67.784 10.4321C67.7434 10.7042 67.8158 10.9602 67.9819 11.1336C68.1164 11.2725 68.2965 11.346 68.5046 11.346H70.6572C71.1621 11.346 71.6556 10.8982 71.7355 10.3678L73.0864 1.3927C73.127 1.12059 73.0547 0.864554 72.8886 0.691184C72.7541 0.552258 72.574 0.478776 72.3659 0.478776H70.212Z" fill="#E8FFE5"/>
<path d="M76.056 19.1846L77.9689 21.9482H26.4595L24.5453 19.1846H76.056Z" fill="#711E00"/>
<path d="M77.969 22.187H26.4595C26.3682 22.187 26.2844 22.1445 26.2362 22.0745L24.322 19.3109C24.2713 19.2374 24.2688 19.1444 24.3144 19.0687C24.3601 18.9929 24.4489 18.9458 24.5453 18.9458H76.0548C76.1461 18.9458 76.2298 18.9883 76.278 19.0583L78.1922 21.8219C78.243 21.8954 78.2455 21.9884 78.1998 22.0642C78.1542 22.1399 78.0654 22.187 77.969 22.187ZM26.6054 21.7094H77.492L75.9089 19.4234H25.0223L26.6054 21.7094Z" fill="#E8FFE5"/>
<path d="M85.3733 7.90859C85.3745 7.86267 85.3771 7.81674 85.3758 7.77196C85.3758 7.74555 85.3733 7.71915 85.372 7.69274C85.3695 7.65255 85.3669 7.61237 85.3631 7.57218C85.3606 7.54463 85.3555 7.51822 85.3517 7.49066C85.3479 7.4654 85.3454 7.44015 85.3416 7.41603C85.339 7.40226 85.3352 7.38848 85.3327 7.3747C85.3289 7.35518 85.3251 7.33681 85.32 7.31844C85.3098 7.27481 85.2984 7.23233 85.2858 7.18985C85.2807 7.17378 85.2769 7.15885 85.2718 7.14278C85.2693 7.13589 85.268 7.13014 85.2655 7.12326C85.2604 7.10833 85.2528 7.09455 85.2477 7.07963C85.2287 7.02911 85.2084 6.97859 85.1855 6.92922C85.1805 6.91889 85.1779 6.9074 85.1729 6.89822C85.1665 6.88444 85.1576 6.87067 85.15 6.85689C85.131 6.82015 85.112 6.78455 85.0904 6.75011C85.0828 6.73633 85.0764 6.72255 85.0676 6.70992C85.0523 6.68696 85.0371 6.664 85.0219 6.64103L83.1077 3.87744C83.1318 3.91303 83.1534 3.94977 83.1762 3.98766C83.1965 4.02211 83.2168 4.05885 83.2358 4.09444C83.2485 4.11855 83.2599 4.14266 83.2713 4.16677C83.2942 4.215 83.3145 4.26552 83.3335 4.31718C83.3411 4.33785 83.35 4.35852 83.3576 4.38033C83.3627 4.3964 83.3665 4.41133 83.3716 4.42741C83.3842 4.46989 83.3957 4.51237 83.4058 4.556C83.4096 4.57437 83.4147 4.59389 83.4185 4.61226C83.4261 4.65014 83.4324 4.68918 83.4388 4.72937C83.4426 4.75692 83.4477 4.78333 83.4502 4.81089C83.454 4.84992 83.4565 4.89011 83.4591 4.93144C83.4604 4.95785 83.4629 4.98426 83.4629 5.01066C83.4642 5.05544 83.4629 5.10137 83.4604 5.14729C83.4591 5.17026 83.4604 5.19207 83.4591 5.21503C83.454 5.28392 83.4477 5.35396 83.4362 5.42515L81.7212 16.8159C81.7098 16.8883 81.6946 16.9606 81.6781 17.0318C81.673 17.0501 81.6692 17.0685 81.6641 17.088C81.6476 17.1512 81.6286 17.2143 81.607 17.2763C81.6045 17.2832 81.602 17.2913 81.5994 17.2981C81.5753 17.3659 81.5474 17.4325 81.5182 17.4991C81.5106 17.5163 81.503 17.5335 81.4941 17.5507C81.4688 17.6058 81.4409 17.6598 81.4117 17.7126C81.4053 17.7241 81.399 17.7367 81.3927 17.7482C81.3787 17.7735 81.361 17.7976 81.3457 17.8228C81.3153 17.8734 81.2848 17.9227 81.2506 17.971C81.229 18.0031 81.2049 18.033 81.1821 18.064C81.1554 18.0984 81.1301 18.1329 81.1022 18.1661C81.0755 18.1983 81.0464 18.2293 81.0185 18.2603C80.9931 18.2878 80.969 18.3166 80.9423 18.343C80.9119 18.374 80.8802 18.4038 80.8472 18.4337C80.8218 18.4578 80.7965 18.483 80.7698 18.506C80.7381 18.5347 80.7039 18.56 80.6696 18.5875C80.6404 18.6105 80.6125 18.6346 80.5834 18.6564C80.5529 18.6794 80.5212 18.6989 80.4895 18.7207C80.454 18.7448 80.4172 18.7701 80.3804 18.793C80.3537 18.8091 80.3258 18.824 80.2979 18.839C80.2497 18.8665 80.2028 18.8929 80.1533 18.917C80.0937 18.9469 80.0341 18.9756 79.9719 18.9997C79.9719 18.9997 79.9719 18.9997 79.9707 18.9997C79.9072 19.025 79.8425 19.0479 79.7766 19.0686C79.7512 19.0766 79.7258 19.0835 79.6992 19.0916C79.6535 19.1042 79.6066 19.1168 79.5597 19.1271C79.533 19.1329 79.5064 19.1386 79.4797 19.1444C79.4303 19.1536 79.3808 19.1604 79.3301 19.1673C79.3072 19.1708 79.2831 19.1742 79.2603 19.1765C79.1867 19.1834 79.1131 19.188 79.0396 19.188H78.2975H76.0535L77.9677 21.9516H80.2117H80.9538C81.0273 21.9516 81.1009 21.947 81.1745 21.9401C81.1986 21.9378 81.2214 21.9344 81.2442 21.9309C81.2937 21.9252 81.3445 21.9171 81.3939 21.908C81.4206 21.9034 81.4472 21.8976 81.4738 21.8907C81.5208 21.8804 81.5677 21.8689 81.6134 21.8551C81.6388 21.8483 81.6654 21.8402 81.6908 21.8322C81.7047 21.8276 81.7187 21.8253 81.7314 21.8207C81.7834 21.8035 81.8341 21.784 81.8849 21.7644C81.8849 21.7644 81.8848 21.7644 81.8861 21.7644C81.9369 21.7438 81.9876 21.722 82.0371 21.6978C82.0472 21.6933 82.0574 21.6864 82.0675 21.6818C82.117 21.6577 82.1639 21.6313 82.2121 21.6037C82.2337 21.5922 82.2553 21.5819 82.2756 21.5693C82.2819 21.5658 82.2882 21.5612 82.2933 21.5566C82.3301 21.5337 82.3656 21.5096 82.4011 21.4843C82.4278 21.4671 82.4544 21.451 82.4798 21.4315C82.4849 21.428 82.4899 21.4234 82.495 21.4188C82.5242 21.397 82.5521 21.3729 82.5813 21.35C82.6092 21.3281 82.6371 21.3075 82.6637 21.2845C82.6701 21.2799 82.6751 21.2742 82.6815 21.2684C82.7081 21.2455 82.7335 21.2202 82.7589 21.1961C82.7842 21.1731 82.8096 21.1502 82.835 21.1261C82.8413 21.1192 82.8477 21.1123 82.854 21.1054C82.8806 21.079 82.9047 21.0503 82.9301 21.0227C82.9517 20.9986 82.9745 20.9768 82.9948 20.9527C83.0012 20.9447 83.0075 20.9366 83.0138 20.9286C83.0417 20.8953 83.0671 20.8608 83.0925 20.8264C83.1102 20.8023 83.1305 20.7805 83.147 20.7564C83.1521 20.7495 83.1559 20.7414 83.161 20.7346C83.194 20.6863 83.2257 20.637 83.2561 20.5864C83.2688 20.5658 83.2828 20.5474 83.2942 20.5267C83.2967 20.5221 83.2993 20.5164 83.3018 20.5118C83.3081 20.5003 83.3145 20.4877 83.3208 20.4762C83.35 20.4234 83.3779 20.3694 83.4033 20.3143C83.4109 20.2971 83.4198 20.2799 83.4274 20.2627C83.4324 20.25 83.4401 20.2374 83.4451 20.2248C83.468 20.1708 83.4895 20.1168 83.5086 20.0617C83.5111 20.0548 83.5136 20.0468 83.5162 20.0399C83.5377 19.9779 83.5555 19.9148 83.5733 19.8516C83.5783 19.8333 83.5834 19.8149 83.5872 19.7954C83.6037 19.7242 83.6189 19.653 83.6303 19.5795L85.3454 8.18874C85.3555 8.11755 85.3631 8.04752 85.3682 7.97863C85.3733 7.95337 85.372 7.93155 85.3733 7.90859Z" fill="#8AFA74"/>
<path d="M80.9563 22.1868H77.969C77.8776 22.1868 77.7939 22.1444 77.7457 22.0743L75.8315 19.3107C75.7808 19.2372 75.7782 19.1442 75.8239 19.0685C75.8708 18.9927 75.9584 18.9456 76.0548 18.9456H79.0421C79.1005 18.9456 79.1639 18.9422 79.2362 18.9353C79.2476 18.9341 79.2578 18.933 79.2692 18.9307L79.2971 18.9272C79.3415 18.9215 79.3846 18.9158 79.429 18.9077C79.4531 18.9031 79.476 18.8985 79.4988 18.8928C79.5407 18.8836 79.5812 18.8733 79.6218 18.8618C79.6497 18.8538 79.67 18.848 79.6903 18.8423C79.7601 18.8205 79.8146 18.801 79.8641 18.7814C79.8654 18.7814 79.8667 18.7803 79.8667 18.7803C79.9212 18.7585 79.9745 18.7332 80.0265 18.7068C80.0709 18.685 80.114 18.6609 80.1571 18.6356L80.1889 18.6184C80.2028 18.6104 80.2168 18.6023 80.2307 18.5943C80.2574 18.5782 80.2827 18.5598 80.3094 18.5426L80.3601 18.5082C80.3791 18.4955 80.3982 18.4829 80.4159 18.4703C80.4337 18.4565 80.4514 18.4427 80.4692 18.429L80.5161 18.3922C80.5402 18.3738 80.5643 18.3543 80.5872 18.3348C80.6037 18.3199 80.6214 18.3038 80.6379 18.2877L80.6684 18.259C80.695 18.2349 80.7204 18.2108 80.7457 18.1855C80.7648 18.166 80.7825 18.1465 80.799 18.127L80.8155 18.1086C80.8472 18.0742 80.8701 18.0489 80.8916 18.0214C80.9132 17.995 80.9335 17.9685 80.9538 17.941L80.9792 17.9065C80.9956 17.8859 81.0121 17.8641 81.0274 17.8422C81.0578 17.7975 81.087 17.7527 81.1149 17.7068L81.1352 17.6746C81.1428 17.6631 81.1504 17.6517 81.1567 17.639L81.1745 17.6057C81.2011 17.5575 81.2265 17.5081 81.2493 17.4576L81.2709 17.4105C81.3001 17.344 81.3255 17.2831 81.3445 17.2268C81.3445 17.2245 81.3496 17.2096 81.3508 17.2073C81.3711 17.1488 81.3876 17.0914 81.4028 17.0328L81.4155 16.9823C81.4333 16.9065 81.446 16.8445 81.4548 16.7848L83.1699 5.39402C83.1788 5.33202 83.1864 5.26773 83.1902 5.20229C83.1902 5.19195 83.1914 5.18047 83.1914 5.17014V5.14028C83.1927 5.0978 83.194 5.05647 83.194 5.01514C83.194 4.99906 83.1927 4.98414 83.1914 4.96806L83.1902 4.9451C83.1876 4.90721 83.1864 4.87162 83.1826 4.83603C83.18 4.81651 83.1775 4.79699 83.1737 4.77747L83.1711 4.76369C83.1661 4.7281 83.161 4.69365 83.1534 4.65921C83.1496 4.64199 83.1458 4.62591 83.142 4.60869C83.1331 4.56965 83.1217 4.53177 83.1103 4.49388L83.0976 4.4514C83.095 4.44221 83.0912 4.43303 83.0874 4.42384L83.0773 4.39743C83.0608 4.35151 83.0418 4.30673 83.0227 4.2631C83.0126 4.24129 83.0024 4.22062 82.991 4.19995C82.9745 4.1678 82.9568 4.13566 82.9377 4.10466L82.9289 4.08973C82.9124 4.06217 82.8959 4.03462 82.8781 4.00821C82.8007 3.89684 82.8388 3.74873 82.9618 3.67869C83.0862 3.60865 83.2485 3.64195 83.3259 3.75447L85.2401 6.51806C85.2579 6.54332 85.2744 6.56973 85.2908 6.59614C85.2985 6.60877 85.3061 6.6214 85.3124 6.63403C85.3403 6.6811 85.3619 6.72129 85.3834 6.76262C85.3949 6.78214 85.4025 6.79592 85.4088 6.80969C85.4139 6.81888 85.419 6.83151 85.4228 6.84414C85.4481 6.8981 85.4697 6.95321 85.4913 7.01062C85.5002 7.03129 85.5065 7.04506 85.5116 7.05884C85.5128 7.06228 85.5166 7.07606 85.5179 7.07951L85.5331 7.13117C85.5471 7.17825 85.5598 7.22532 85.5712 7.27355C85.5763 7.29536 85.5813 7.31488 85.5851 7.33554L85.5877 7.34817C85.5902 7.35966 85.5928 7.37114 85.5953 7.38262C85.5991 7.40099 85.6016 7.42051 85.6042 7.44117L85.6105 7.4848C85.6143 7.50777 85.6168 7.53073 85.6207 7.55484C85.6257 7.59732 85.6283 7.6421 85.6308 7.68573L85.6321 7.70869C85.6333 7.73051 85.6346 7.75117 85.6359 7.77299C85.6371 7.82121 85.6359 7.87058 85.6333 7.9211C85.6333 7.9211 85.6333 7.9211 85.6333 7.92225V7.94521C85.6333 7.96243 85.6333 7.97966 85.6321 7.99688C85.627 8.07495 85.6194 8.15188 85.608 8.22536L83.8929 19.6161C83.8828 19.6862 83.8676 19.7608 83.846 19.8504C83.8409 19.871 83.8359 19.8917 83.8308 19.9124C83.813 19.9801 83.7927 20.0478 83.7699 20.1156L83.7623 20.1408C83.742 20.1994 83.7191 20.2579 83.6938 20.3165C83.69 20.3268 83.6849 20.336 83.6811 20.3452L83.6532 20.4072C83.6227 20.4727 83.5923 20.5312 83.5606 20.5886L83.5301 20.6437C83.5213 20.6587 83.5111 20.6747 83.501 20.6897L83.4895 20.708C83.4566 20.762 83.4223 20.816 83.3868 20.8676C83.3817 20.8757 83.3766 20.8848 83.3703 20.8929C83.3589 20.9101 83.3449 20.9273 83.331 20.9445L83.3018 20.9824C83.2777 21.0146 83.2523 21.0467 83.227 21.0777C83.2194 21.0881 83.213 21.0961 83.2067 21.1041C83.1914 21.1225 83.175 21.1386 83.1597 21.1558L83.1229 21.196C83.1014 21.2201 83.0785 21.2454 83.0557 21.2683C83.0481 21.2775 83.0418 21.2844 83.0354 21.2913C83.0164 21.3108 82.9974 21.328 82.9771 21.3452L82.9327 21.3866C82.9111 21.4061 82.8908 21.4268 82.868 21.4451C82.8629 21.4497 82.8566 21.4566 82.8489 21.4624C82.8286 21.4796 82.8084 21.4957 82.7868 21.5117L82.7373 21.5508C82.7132 21.5703 82.6904 21.5887 82.665 21.607C82.6612 21.6105 82.6549 21.6151 82.6485 21.6197C82.6282 21.6346 82.6092 21.6472 82.5889 21.6598L82.5407 21.692C82.509 21.7138 82.4773 21.7356 82.4443 21.7551C82.4392 21.7586 82.4316 21.7643 82.4227 21.7689C82.4075 21.7781 82.3897 21.7873 82.372 21.7965L82.3542 21.8057C82.3022 21.8355 82.2502 21.8642 82.1957 21.8906C82.1842 21.8975 82.1741 21.9032 82.1627 21.9078C82.1069 21.9342 82.0511 21.9584 81.9952 21.9813C81.994 21.9813 81.9927 21.9825 81.9914 21.9825C81.9369 22.0043 81.8811 22.025 81.824 22.0445C81.8126 22.0479 81.7999 22.0525 81.7872 22.056C81.7529 22.0663 81.7263 22.0743 81.6997 22.0812C81.6426 22.0973 81.5906 22.1099 81.5386 22.1225C81.5094 22.1294 81.4802 22.1352 81.4498 22.1409C81.3952 22.1512 81.3394 22.1593 81.2823 22.1662L81.2608 22.1685C81.2417 22.1708 81.2227 22.1742 81.2024 22.1754C81.1149 22.1822 81.0337 22.1868 80.9563 22.1868ZM78.1161 21.7092H80.9563C81.0147 21.7092 81.0781 21.7058 81.1504 21.6989C81.1618 21.6977 81.1732 21.6966 81.1834 21.6943L81.2113 21.6908C81.2557 21.6851 81.2988 21.6794 81.3432 21.6713C81.3673 21.6667 81.3901 21.6621 81.413 21.6564C81.4548 21.6472 81.4954 21.6369 81.5373 21.6254C81.5639 21.6174 81.5855 21.6116 81.6058 21.6059L81.635 21.5978C81.6895 21.5806 81.7339 21.5634 81.7796 21.545C81.7809 21.545 81.7821 21.5439 81.7821 21.5439C81.8265 21.5255 81.8722 21.506 81.9153 21.4853C81.9229 21.4807 81.9331 21.475 81.942 21.4704C81.9864 21.4486 82.0295 21.4245 82.0726 21.4004C82.0853 21.3935 82.098 21.3866 82.1107 21.3797C82.117 21.3762 82.1246 21.3728 82.131 21.3694C82.1335 21.3671 82.1398 21.3625 82.1462 21.359C82.1728 21.343 82.1969 21.3257 82.2223 21.3085L82.2832 21.2683C82.2946 21.2603 82.306 21.2534 82.3174 21.2454L82.3314 21.2339C82.3504 21.2201 82.3669 21.2063 82.3847 21.1925L82.4443 21.1455C82.4582 21.1351 82.4722 21.1237 82.4862 21.1122C82.4887 21.1099 82.4976 21.1007 82.5014 21.0984C82.5191 21.0835 82.5344 21.0685 82.5508 21.0536L82.6041 21.0042C82.6168 20.9928 82.6308 20.9801 82.6422 20.9687C82.6485 20.9618 82.6536 20.9549 82.6599 20.9491C82.6777 20.9308 82.6955 20.9112 82.7132 20.8917L82.7589 20.8424C82.769 20.832 82.7792 20.8205 82.7893 20.8091C82.7944 20.801 82.8007 20.7941 82.8058 20.7872C82.8274 20.7608 82.8477 20.7344 82.868 20.708L82.906 20.6598C82.9136 20.6495 82.9225 20.6403 82.9301 20.6288C82.9339 20.6219 82.939 20.615 82.9441 20.6081C82.9745 20.5645 83.0024 20.5186 83.0316 20.4727C83.0392 20.4612 83.0468 20.4497 83.0532 20.4382C83.0582 20.4313 83.0621 20.4244 83.0659 20.4175L83.0912 20.3705C83.1179 20.3211 83.1432 20.2717 83.1673 20.2212L83.2054 20.1397C83.227 20.0903 83.246 20.041 83.2638 19.9904L83.2714 19.9675C83.2904 19.9135 83.3069 19.8549 83.3221 19.7964C83.3272 19.7792 83.331 19.7619 83.3348 19.7459C83.3526 19.669 83.3652 19.6058 83.3741 19.5484L85.0891 8.15762C85.098 8.09562 85.1056 8.03132 85.1094 7.96588C85.1094 7.95555 85.1094 7.94636 85.1107 7.93603L85.112 7.90388C85.1133 7.86254 85.1145 7.82121 85.1145 7.78103C85.1145 7.76495 85.1133 7.75003 85.112 7.73625L85.1107 7.70869C85.1082 7.6731 85.1069 7.63636 85.1031 7.60077C85.1006 7.58239 85.098 7.56517 85.0955 7.54795L85.0879 7.49399C85.0866 7.48251 85.0853 7.47103 85.0828 7.45955L85.0625 7.36999C85.0536 7.3321 85.0435 7.29421 85.0321 7.25632L85.0194 7.21384C85.0181 7.21154 85.0156 7.20006 85.0143 7.19662C85.0067 7.1794 85.0016 7.16791 84.9978 7.15643C84.9813 7.1128 84.9636 7.06803 84.9433 7.0244C84.9382 7.01406 84.9344 7.00488 84.9306 6.99454C84.9217 6.97962 84.9166 6.97043 84.9116 6.96125C84.8951 6.92795 84.8773 6.89695 84.8583 6.86595C84.8519 6.85562 84.8469 6.84643 84.8418 6.8361C84.8253 6.80969 84.8126 6.78903 84.7987 6.76951L83.723 5.21721C83.723 5.2218 83.723 5.22525 83.7217 5.22984C83.7166 5.30791 83.709 5.38484 83.6976 5.45832L81.9825 16.8491C81.9724 16.9203 81.9559 16.9972 81.9356 17.0833C81.9305 17.1028 81.9255 17.1235 81.9204 17.143C81.9026 17.2119 81.8823 17.2808 81.8595 17.3474L81.8532 17.3681C81.8278 17.4392 81.7999 17.5104 81.7644 17.5885L81.7428 17.6344C81.7111 17.7022 81.6806 17.7607 81.6502 17.8181L81.6286 17.8583C81.6185 17.8767 81.6071 17.8951 81.5944 17.9146L81.5792 17.9387C81.5462 17.9927 81.5132 18.0466 81.4764 18.0983C81.4574 18.1258 81.4371 18.1522 81.4168 18.1787L81.3927 18.2108C81.3673 18.2441 81.3432 18.2762 81.3166 18.3084C81.2899 18.3405 81.262 18.3715 81.2341 18.4025L81.2113 18.4278C81.1897 18.4531 81.1669 18.4772 81.1428 18.5013C81.1136 18.5323 81.0819 18.561 81.0502 18.5908L81.0223 18.6172C81.0007 18.6379 80.9792 18.6586 80.9563 18.6781C80.9271 18.7034 80.898 18.7275 80.8675 18.7516L80.8257 18.786C80.8016 18.8055 80.7787 18.8239 80.7534 18.8423C80.7292 18.8607 80.7039 18.8779 80.6772 18.8951L80.6316 18.9261C80.5986 18.9491 80.5656 18.9709 80.5314 18.9915C80.5111 19.0042 80.4895 19.0168 80.4679 19.0283L80.4426 19.0421C80.3906 19.0719 80.3373 19.1006 80.284 19.1282C80.2256 19.1569 80.1572 19.1902 80.0848 19.2189C80.081 19.22 80.0772 19.2223 80.0734 19.2235C80.0087 19.2487 79.9453 19.2717 79.8705 19.2958C79.8438 19.3038 79.8185 19.3119 79.7918 19.3188C79.7335 19.3348 79.6815 19.3486 79.6294 19.3601C79.6003 19.367 79.5711 19.3727 79.5406 19.3785C79.4848 19.3888 79.429 19.3968 79.3732 19.4037L79.3516 19.406C79.3326 19.4083 79.3136 19.4106 79.2946 19.4129C79.2045 19.421 79.1233 19.4255 79.0459 19.4255H76.5355L78.1161 21.7092Z" fill="#E8FFE5"/>
<path d="M35.4596 30.373L37.3738 33.1366H22.8442L20.93 30.373H35.4596Z" fill="#787070"/>
<path d="M37.3738 33.3755H22.8442C22.7529 33.3755 22.6691 33.333 22.6209 33.263L20.7067 30.4994C20.656 30.4259 20.6535 30.3329 20.6991 30.2571C20.7448 30.1813 20.8336 30.1343 20.93 30.1343H35.4596C35.5509 30.1343 35.6347 30.1768 35.6829 30.2468L37.5971 33.0104C37.6478 33.0839 37.6503 33.1769 37.6047 33.2526C37.559 33.3284 37.4702 33.3755 37.3738 33.3755ZM22.9901 32.8979H36.8968L35.3137 30.6119H21.407L22.9901 32.8979Z" fill="#E8FFE5"/>
<path d="M77.969 21.9482L76.056 19.1846L68.8344 41.531L64.5873 54.6727L63.8212 57.0425L65.7341 59.8061L66.5003 57.4363L70.7447 44.3049L77.969 21.9482Z" fill="#D4FCC2"/>
<path d="M65.8229 60.3835L63.5345 57.0779L68.7836 40.8385L75.9672 18.6069L78.2556 21.9125L78.2227 22.0158L70.9984 44.3725L65.8229 60.3835ZM64.1066 57.0068L65.6453 59.2296L77.6823 21.9848L76.1436 19.762L68.8851 42.2243L64.1066 57.0068Z" fill="#E8FFE5"/>
<path d="M68.8115 41.563L64.5873 54.6725L63.8211 57.0423H48.6674L68.8115 41.563Z" fill="#D4FCC2"/>
<path d="M63.8212 57.2809H48.6675C48.5571 57.2809 48.4582 57.2189 48.4201 57.1248C48.382 57.0306 48.4125 56.925 48.4975 56.8607L68.6416 41.3813C68.7303 41.3136 68.8585 41.3056 68.9561 41.363C69.0538 41.4204 69.0982 41.5295 69.0665 41.6305L64.8423 54.7401L64.0762 57.111C64.0406 57.2109 63.9379 57.2809 63.8212 57.2809ZM49.3854 56.8033H63.6233L64.3337 54.6046L68.3117 42.2597L49.3854 56.8033Z" fill="#E8FFE5"/>
<path d="M24.5453 19.1846H76.056L68.828 41.5516L53.6705 41.5631L48.6674 57.0425H12.3104L14.8119 49.3028H29.3416L35.4596 30.3733H20.93L24.5453 19.1846Z" fill="#E8FFE5"/>
<path d="M48.6674 57.2813H12.3104C12.228 57.2813 12.1493 57.2457 12.0999 57.186C12.0504 57.1263 12.0339 57.0482 12.058 56.9759L14.5595 49.2362C14.5925 49.1341 14.6952 49.064 14.8132 49.064H29.1449L35.1082 30.6121H20.93C20.8476 30.6121 20.7689 30.5765 20.7194 30.5168C20.67 30.4571 20.6535 30.3791 20.6776 30.3067L24.2941 19.118C24.3271 19.0158 24.4299 18.9458 24.5478 18.9458H76.0573C76.141 18.9458 76.2184 18.9814 76.2679 19.0411C76.3173 19.1008 76.3338 19.1789 76.3097 19.2512L69.0817 41.6183C69.0487 41.7205 68.946 41.7905 68.8293 41.7905L53.8696 41.802L48.9211 57.1102C48.8869 57.2113 48.7841 57.2813 48.6674 57.2813ZM12.6631 56.8037H48.4696L53.418 41.4954C53.451 41.3932 53.5538 41.3232 53.6705 41.3232L68.6301 41.3117L75.7034 19.4223H24.7432L21.2814 30.1334H35.4596C35.5421 30.1334 35.6207 30.1689 35.6702 30.2287C35.7197 30.2884 35.7362 30.3664 35.7121 30.4388L29.594 49.3683C29.561 49.4705 29.4583 49.5405 29.3403 49.5405H15.0098L12.6631 56.8037Z" fill="#E8FFE5"/>
<path d="M37.4056 19.0757L37.3701 19.1848L37.2673 19.5016L32.9252 32.9361L32.7869 33.3621L28.446 46.7966L28.3078 47.2237L25.1339 57.0427H24.7191L27.8929 47.2237L28.0312 46.7977L32.3721 33.3632L32.5104 32.9373L36.8525 19.5016L36.954 19.1848L36.9895 19.0757H37.4056Z" fill="#E8FFE5"/>
<path d="M50.8963 19.063L50.8569 19.1847L50.7592 19.489L46.4171 32.9234L46.2801 33.3494H46.2788L41.938 46.785L41.7997 47.211L38.6221 57.0426H38.206L41.3849 47.211L41.5219 46.785L45.864 33.3505L46.001 32.9246L50.3432 19.489H50.3444L50.4421 19.1847L50.4802 19.063H50.8963Z" fill="#E8FFE5"/>
<path d="M64.3882 19.0503L64.3451 19.1846L64.2512 19.4763L59.9091 32.9107L59.7721 33.3367L55.4287 46.7723L55.2917 47.1983L52.1102 57.0425H51.6942L54.8769 47.1983L55.0139 46.7723L59.356 33.3379L59.4943 32.9119L63.8351 19.4774L63.9303 19.1846L63.9734 19.0503H64.3882Z" fill="#E8FFE5"/>
<path d="M71.6238 32.9004L71.4855 33.3264L59.772 33.3367L59.356 33.3378L46.2801 33.3493H46.2788L45.864 33.3505L32.7869 33.3619L32.372 33.3631L19.9596 33.3746L20.0979 32.9486L32.5103 32.9371L32.9251 32.936L46.001 32.9245L46.4171 32.9234L59.4942 32.9119L59.909 32.9107L71.6238 32.9004Z" fill="#E8FFE5"/>
<path d="M67.1447 46.7607L67.0064 47.1867L55.2917 47.1982H54.8768L41.7997 47.2108H41.3849L28.3077 47.2234H27.8929L15.4805 47.2349L15.6187 46.809L28.0312 46.7975L28.446 46.7963L41.5219 46.7848H41.938L55.0138 46.7722H55.4287L67.1447 46.7607Z" fill="#E8FFE5"/>
<path d="M63.8212 57.0425H48.6674H12.3104L14.2246 59.8061H50.5816H65.7341L63.8212 57.0425Z" fill="#58F74A"/>
<path d="M65.7341 60.0448H14.2246C14.1333 60.0448 14.0496 60.0023 14.0014 59.9322L12.0872 57.1698C12.0364 57.0963 12.0339 57.0033 12.0796 56.9275C12.1252 56.8518 12.214 56.8047 12.3104 56.8047H63.8199C63.9112 56.8047 63.995 56.8472 64.0432 56.9172L65.9574 59.6808C66.0081 59.7543 66.0106 59.8473 65.965 59.9231C65.9193 59.9977 65.8305 60.0448 65.7341 60.0448ZM14.3705 59.5671H65.2571L63.674 57.2812H12.7874L14.3705 59.5671Z" fill="#E8FFE5"/>
<path d="M20.93 30.373H35.4596L29.3416 49.3026H14.812H0.264587L6.38265 30.373H20.93ZM29.4583 35.5845C29.7158 35.5845 29.9555 35.3721 29.9949 35.1103C30.0342 34.8474 29.8591 34.6361 29.6016 34.6361H9.17466C8.91842 34.6361 8.67867 34.8485 8.63935 35.1103C8.60002 35.3721 8.77635 35.5845 9.03132 35.5845H29.4583ZM28.3445 39.0335C28.602 39.0335 28.8418 38.8211 28.8811 38.5593C28.9204 38.2964 28.7454 38.0852 28.4879 38.0852H8.0609C7.80466 38.0852 7.56491 38.2976 7.52559 38.5593C7.48626 38.8211 7.66259 39.0335 7.91756 39.0335H28.3445ZM27.2295 42.4837C27.487 42.4837 27.7267 42.2713 27.7661 42.0095C27.8054 41.7478 27.6291 41.5353 27.3728 41.5353H13.9088C13.6513 41.5353 13.4115 41.7478 13.3722 42.0095C13.3329 42.2725 13.5079 42.4837 13.7654 42.4837H27.2295Z" fill="#8AFA74"/>
<path d="M29.3416 49.5414H0.264597C0.182144 49.5414 0.103495 49.5058 0.0540228 49.4461C0.00455058 49.3864 -0.0119404 49.3084 0.0121615 49.236L6.13023 30.3065C6.16321 30.2043 6.26596 30.1343 6.38393 30.1343H35.4609C35.5434 30.1343 35.622 30.1699 35.6715 30.2296C35.721 30.2893 35.7374 30.3673 35.7133 30.4397L29.5953 49.3692C29.5623 49.4714 29.4583 49.5414 29.3416 49.5414ZM0.615976 49.0638H29.1437L35.107 30.6119H6.58055L0.615976 49.0638ZM27.2295 42.7226H13.7654C13.5752 42.7226 13.4014 42.6514 13.2783 42.5228C13.1413 42.3804 13.0804 42.1818 13.1109 41.9763C13.168 41.5951 13.5181 41.2966 13.9088 41.2966H27.3716C27.5618 41.2966 27.7356 41.3678 27.86 41.4963C27.997 41.6387 28.0578 41.8373 28.0274 42.0417C27.969 42.4229 27.6189 42.7226 27.2295 42.7226ZM13.9088 41.7742C13.7984 41.7742 13.6576 41.8844 13.6335 42.0417C13.6234 42.1106 13.6386 42.1715 13.6754 42.2094C13.6982 42.2335 13.7287 42.2449 13.7654 42.2449H27.2295C27.3399 42.2449 27.4807 42.1347 27.5048 41.9763C27.5149 41.9085 27.4997 41.8477 27.4629 41.8098C27.4388 41.7857 27.4096 41.7742 27.3728 41.7742H13.9088ZM28.3445 39.2724H7.91757C7.72729 39.2724 7.55477 39.2012 7.43046 39.0726C7.29346 38.9302 7.23257 38.7316 7.26301 38.5272C7.3201 38.1449 7.67021 37.8464 8.05964 37.8464H28.4853C28.6756 37.8464 28.8494 37.9176 28.9724 38.0462C29.1094 38.1885 29.1703 38.3872 29.1399 38.5927C29.0841 38.9739 28.734 39.2724 28.3445 39.2724ZM8.06091 38.324C7.95055 38.324 7.81101 38.4342 7.78691 38.5927C7.77676 38.6604 7.79199 38.7213 7.82877 38.7592C7.85161 38.7833 7.88078 38.7948 7.91757 38.7948H28.3433C28.4536 38.7948 28.5944 38.6845 28.6185 38.5272C28.6287 38.4583 28.6134 38.3975 28.5767 38.3596C28.5538 38.3355 28.5234 38.324 28.4866 38.324H8.06091ZM29.4583 35.8234H9.0326C8.84232 35.8234 8.6698 35.7522 8.54549 35.6236C8.40849 35.4812 8.3476 35.2826 8.37804 35.0782C8.43512 34.6959 8.78524 34.3973 9.17467 34.3973H29.6004C29.7906 34.3973 29.9644 34.4685 30.0875 34.5971C30.2245 34.7395 30.2854 34.9381 30.2549 35.1436C30.1991 35.5248 29.849 35.8234 29.4583 35.8234ZM9.17467 34.875C9.06431 34.875 8.92477 34.9852 8.90067 35.1436C8.89052 35.2114 8.90575 35.2722 8.94253 35.3101C8.96537 35.3342 8.99454 35.3457 9.03133 35.3457H29.457C29.5674 35.3457 29.7082 35.2355 29.731 35.0782C29.7412 35.0093 29.7259 34.9485 29.6892 34.9106C29.6663 34.8865 29.6359 34.875 29.5991 34.875H9.17467Z" fill="#E8FFE5"/>
<path d="M29.3416 49.3027H14.812H0.264587L2.17751 52.0663H16.7262H31.2558L29.3416 49.3027Z" fill="#58F74A"/>
<path d="M31.2558 52.3052H2.17751C2.08618 52.3052 2.00246 52.2627 1.95425 52.1927L0.0400583 49.4291C-0.0106824 49.3556 -0.0132192 49.2626 0.0324475 49.1868C0.0793827 49.111 0.166909 49.064 0.263317 49.064H29.3403C29.4316 49.064 29.5154 49.1064 29.5636 49.1765L31.4777 51.9401C31.5285 52.0136 31.531 52.1066 31.4854 52.1823C31.4397 52.2581 31.3522 52.3052 31.2558 52.3052ZM2.32339 51.8276H30.7788L29.1957 49.5416H0.740281L2.32339 51.8276Z" fill="#E8FFE5"/>
<path d="M35.4596 30.373L37.3738 33.1366L31.2557 52.0662L29.3416 49.3026L35.4596 30.373Z" fill="#8AFA74"/>
<path d="M31.2557 52.3051C31.1657 52.3051 31.0807 52.2638 31.0325 52.1926L29.1183 49.429C29.0777 49.3716 29.0675 49.3004 29.0891 49.2349L35.2072 30.3054C35.2364 30.2147 35.3213 30.1493 35.4241 30.1355C35.5268 30.1229 35.6283 30.1654 35.6841 30.2457L37.5983 33.0093C37.6389 33.0667 37.6491 33.1379 37.6275 33.2034L31.5094 52.1329C31.4803 52.2236 31.3953 52.289 31.2925 52.3028C31.2798 52.3051 31.2672 52.3051 31.2557 52.3051ZM29.6282 49.2671L31.1669 51.4899L37.0871 33.1735L35.5484 30.9507L29.6282 49.2671Z" fill="#E8FFE5"/>
<path d="M68.8116 41.563L48.6675 57.0423L53.6705 41.563H68.8116Z" fill="#8AFA74"/>
<path d="M48.6675 57.2813C48.618 57.2813 48.5672 57.2687 48.5241 57.2423C48.4264 57.1849 48.382 57.0758 48.415 56.9748L53.4181 41.4955C53.451 41.3933 53.5538 41.3232 53.6718 41.3232H68.8128C68.9232 41.3232 69.0221 41.3852 69.0602 41.4794C69.0982 41.5735 69.0678 41.6792 68.9828 41.7435L48.8387 57.2228C48.7892 57.263 48.7283 57.2813 48.6675 57.2813ZM53.8684 41.802L49.1673 56.3445L68.0923 41.802H53.8684Z" fill="#E8FFE5"/>
<path d="M81.4713 3.05176C82.7525 3.05176 83.6316 4.1138 83.435 5.42383L81.7199 16.8146C81.5233 18.1235 80.3233 19.1855 79.0421 19.1855H78.3H76.056H24.5453H20.3325C19.05 19.1855 18.171 18.1235 18.3676 16.8146L20.0826 5.42383C20.2805 4.1138 21.4793 3.05176 22.7617 3.05176H31.1314L30.0253 10.3999C29.9263 11.0555 30.3652 11.5848 31.0071 11.5848H33.1598C33.8004 11.5848 34.4004 11.0544 34.4981 10.3999L35.6042 3.05176H68.6288L67.5227 10.3999C67.4237 11.0555 67.8639 11.5848 68.5045 11.5848H70.6572C71.2978 11.5848 71.8978 11.0544 71.9967 10.3999L73.1029 3.05176H81.4713Z" fill="#002928"/>
<path d="M79.0421 19.4232H20.3325C19.6907 19.4232 19.1084 19.1856 18.6911 18.7527C18.2065 18.2498 17.9934 17.5322 18.1063 16.7814L19.8213 5.39058C20.0357 3.96917 21.3537 2.81299 22.7617 2.81299H31.1314C31.2075 2.81299 31.2798 2.84284 31.3306 2.89451C31.3813 2.94617 31.4042 3.01506 31.3927 3.08395L30.2866 10.4321C30.246 10.7054 30.317 10.9602 30.4845 11.1336C30.6189 11.2725 30.7991 11.346 31.0071 11.346H33.1598C33.6723 11.346 34.1556 10.9074 34.2368 10.3678L35.3429 3.01965C35.3607 2.90139 35.4723 2.81299 35.6042 2.81299H68.6288C68.7049 2.81299 68.7772 2.84284 68.828 2.89451C68.8775 2.94617 68.9003 3.01506 68.8901 3.08395L67.784 10.4321C67.7434 10.7042 67.8157 10.9602 67.9819 11.1336C68.1163 11.2725 68.2965 11.346 68.5045 11.346H70.6572C71.1621 11.346 71.6555 10.8982 71.7354 10.3678L72.8416 3.01965C72.8593 2.90139 72.971 2.81299 73.1029 2.81299H81.4726C82.1132 2.81299 82.6954 3.05065 83.1128 3.48351C83.5974 3.9864 83.8105 4.70514 83.6976 5.45602L81.9825 16.8468C81.7669 18.2671 80.4489 19.4232 79.0421 19.4232ZM22.7617 3.29062C21.6087 3.29062 20.5241 4.26195 20.3439 5.45602L18.6289 16.8468C18.5363 17.4599 18.7037 18.0409 19.0881 18.4393C19.404 18.7665 19.8454 18.9468 20.3325 18.9468H79.0421C80.1952 18.9468 81.2785 17.9766 81.4586 16.7825L83.1737 5.39173C83.2663 4.77747 83.0988 4.19651 82.7145 3.7981C82.3999 3.47088 81.9584 3.29176 81.4713 3.29176H73.3325L72.2568 10.4332C72.1388 11.214 71.4361 11.8248 70.6559 11.8248H68.5032C68.1443 11.8248 67.817 11.6916 67.5836 11.4482C67.3159 11.1715 67.1979 10.7777 67.2601 10.3678L68.3257 3.29062H35.8351L34.7594 10.4321C34.6414 11.2128 33.9387 11.8237 33.1598 11.8237H31.0071C30.6481 11.8237 30.3208 11.6905 30.0874 11.4482C29.8198 11.1715 29.7018 10.7777 29.764 10.3678L30.8295 3.29062H22.7617Z" fill="#E8FFE5"/>
<path d="M27.3716 41.5352C27.6291 41.5352 27.8042 41.7476 27.7648 42.0093C27.7255 42.2723 27.4858 42.4835 27.2282 42.4835H13.7655C13.5079 42.4835 13.3329 42.2711 13.3722 42.0093C13.4115 41.7476 13.6513 41.5352 13.9088 41.5352H27.3716Z" fill="#002928"/>
<path d="M27.2295 42.7224H13.7654C13.5752 42.7224 13.4014 42.6512 13.2783 42.5226C13.1413 42.3802 13.0804 42.1816 13.1109 41.9761C13.168 41.5949 13.5181 41.2964 13.9088 41.2964H27.3716C27.5619 41.2964 27.7356 41.3676 27.86 41.4962C27.997 41.6385 28.0578 41.8372 28.0274 42.0415C27.9691 42.4227 27.6189 42.7224 27.2295 42.7224ZM13.9088 41.774C13.7984 41.774 13.6576 41.8842 13.6335 42.0415C13.6234 42.1104 13.6386 42.1713 13.6754 42.2092C13.6982 42.2333 13.7287 42.2448 13.7654 42.2448H27.2295C27.3399 42.2448 27.4807 42.1345 27.5048 41.9761C27.5149 41.9083 27.4997 41.8475 27.4629 41.8096C27.4401 41.7855 27.4096 41.774 27.3728 41.774H13.9088Z" fill="#002928"/>
<path d="M29.6016 34.6362C29.8592 34.6362 30.0342 34.8486 29.9949 35.1104C29.9556 35.3722 29.7158 35.5846 29.4583 35.5846H9.03262C8.77638 35.5846 8.60133 35.3722 8.64065 35.1104C8.67997 34.8475 8.91972 34.6362 9.17596 34.6362H29.6016Z" fill="#002928"/>
<path d="M29.4583 35.8235H9.0326C8.84232 35.8235 8.6698 35.7523 8.54549 35.6237C8.40849 35.4813 8.3476 35.2827 8.37804 35.0783C8.43513 34.696 8.78524 34.3975 9.17467 34.3975H29.6004C29.7906 34.3975 29.9644 34.4687 30.0875 34.5972C30.2245 34.7396 30.2854 34.9382 30.2549 35.1438C30.1991 35.5249 29.8477 35.8235 29.4583 35.8235ZM9.17467 34.8751C9.06431 34.8751 8.92478 34.9853 8.90068 35.1438C8.89053 35.2115 8.90575 35.2724 8.94254 35.3102C8.96537 35.3344 8.99455 35.3458 9.03133 35.3458H29.457C29.5674 35.3458 29.7082 35.2356 29.7323 35.0783C29.7424 35.0094 29.7272 34.9486 29.6904 34.9107C29.6676 34.8866 29.6371 34.8751 29.6004 34.8751H9.17467Z" fill="#002928"/>
<path d="M28.4866 38.085C28.7441 38.085 28.9192 38.2974 28.8798 38.5591C28.8405 38.8209 28.6008 39.0333 28.3433 39.0333H7.91757C7.66133 39.0333 7.48627 38.8209 7.5256 38.5591C7.56492 38.2962 7.80467 38.085 8.06091 38.085H28.4866Z" fill="#002928"/>
<path d="M28.3445 39.2722H7.91755C7.72727 39.2722 7.55475 39.201 7.43044 39.0724C7.29344 38.93 7.23255 38.7314 7.26299 38.527C7.32008 38.1447 7.67019 37.8462 8.05962 37.8462H28.4853C28.6756 37.8462 28.8494 37.9174 28.9724 38.046C29.1094 38.1883 29.1703 38.387 29.1399 38.5925C29.084 38.9737 28.7339 39.2722 28.3445 39.2722ZM8.06089 38.3238C7.95053 38.3238 7.81099 38.434 7.78689 38.5925C7.77674 38.6602 7.79196 38.7211 7.82875 38.759C7.85158 38.7831 7.88076 38.7946 7.91755 38.7946H28.3432C28.4536 38.7946 28.5944 38.6843 28.6172 38.527C28.6274 38.4582 28.6122 38.3973 28.5754 38.3594C28.5525 38.3353 28.5221 38.3238 28.4853 38.3238H8.06089Z" fill="#002928"/>
</svg>
