<svg width="37" height="37" viewBox="0 0 37 37" fill="none" xmlns="http://www.w3.org/2000/svg">
<rect width="37" height="37" rx="8" fill="#B3CEA9"/>
<path d="M19.2083 12.8333C19.2083 12.4421 18.8912 12.125 18.5 12.125C18.1088 12.125 17.7917 12.4421 17.7917 12.8333V17.7917H12.8333C12.4421 17.7917 12.125 18.1088 12.125 18.5C12.125 18.8912 12.4421 19.2083 12.8333 19.2083H17.7917V24.1667C17.7917 24.5579 18.1088 24.875 18.5 24.875C18.8912 24.875 19.2083 24.5579 19.2083 24.1667V19.2083H24.1667C24.5579 19.2083 24.875 18.8912 24.875 18.5C24.875 18.1088 24.5579 17.7917 24.1667 17.7917H19.2083V12.8333Z" fill="white"/>
</svg>
